<svg width="17" height="20" viewBox="0 0 17 20" fill="none" xmlns="http://www.w3.org/2000/svg">
<path d="M5.43879 20C2.46219 19.9828 0 13.9066 0 10.8121C0 5.75726 3.79199 4.65062 5.2534 4.65062C5.91199 4.65062 6.61524 4.90925 7.23551 5.13812C7.66926 5.29777 8.11785 5.46257 8.36734 5.46257C8.51668 5.46257 8.86859 5.32238 9.1793 5.19937C9.84191 4.93558 10.6664 4.60773 11.6266 4.60773C11.6283 4.60773 11.6306 4.60773 11.6323 4.60773C12.3493 4.60773 14.5231 4.76507 15.83 6.72773L16.1361 7.18777L15.6955 7.52023C15.0661 7.99515 13.9177 8.86148 13.9177 10.5775C13.9177 12.61 15.2183 13.3916 15.8432 13.7676C16.119 13.9335 16.4045 14.1046 16.4045 14.4788C16.4045 14.7232 14.4544 19.9697 11.6226 19.9697C10.9296 19.9697 10.4398 19.7614 10.0078 19.5777C9.57066 19.3918 9.19355 19.2316 8.57043 19.2316C8.25457 19.2316 7.85516 19.3809 7.43231 19.5394C6.85445 19.7551 6.20039 20 5.45824 20H5.43879Z" fill="#262626"/>
<path d="M11.9266 0C12.0004 2.65922 10.0986 4.50406 8.19908 4.38836C7.88607 2.26621 10.0984 0 11.9266 0Z" fill="#262626"/>
</svg>
