<svg width="24" height="24" viewBox="0 0 24 24" fill="none" xmlns="http://www.w3.org/2000/svg">
<circle cx="12" cy="12" r="12" fill="#0072FF"/>
<path d="M14.2788 7.84636C14.4112 7.7139 14.5685 7.60883 14.7415 7.53714C14.9146 7.46545 15.1001 7.42856 15.2874 7.42856C15.4747 7.42856 15.6602 7.46545 15.8333 7.53714C16.0064 7.60883 16.1636 7.7139 16.2961 7.84636C16.4285 7.97881 16.5336 8.13606 16.6053 8.30913C16.677 8.48219 16.7139 8.66768 16.7139 8.85501C16.7139 9.04233 16.677 9.22782 16.6053 9.40089C16.5336 9.57395 16.4285 9.7312 16.2961 9.86366L9.48766 16.6721L6.71387 17.4286L7.47036 14.6548L14.2788 7.84636Z" stroke="white" stroke-linecap="round" stroke-linejoin="round"/>
</svg>
