<svg width="20" height="20" viewBox="0 0 20 20" fill="none" xmlns="http://www.w3.org/2000/svg">
<path d="M10 20C15.5228 20 20 15.5228 20 10C20 4.47715 15.5228 0 10 0C4.47715 0 0 4.47715 0 10C0 15.5228 4.47715 20 10 20Z" fill="#1877F2"/>
<path d="M13.8924 12.8902L14.3359 9.99977H11.5624V8.12411C11.5624 7.33324 11.9498 6.56238 13.192 6.56238H14.4529V4.10151C13.7125 3.9817 12.9645 3.91631 12.2146 3.90585C9.93024 3.90585 8.4372 5.2902 8.4372 7.79672V9.99977H5.89807V12.8902H8.4372V19.878C9.47262 20.0403 10.527 20.0403 11.5624 19.878V12.8902H13.8924Z" fill="white"/>
</svg>
