<svg width="20" height="20" viewBox="0 0 20 20" fill="none" xmlns="http://www.w3.org/2000/svg">
<path d="M10.1533 4.09025C11.563 4.0894 12.9275 4.57994 14.0051 5.47497L17.0234 2.64463C14.6742 0.511615 11.4414 -0.406291 8.29948 0.167609C5.15759 0.74151 2.47418 2.74008 1.05817 5.56086L4.46093 8.14351C5.27478 5.72692 7.5677 4.09424 10.1533 4.09025Z" fill="#D94F3D"/>
<path d="M4.15365 9.99786C4.1545 9.36742 4.25828 8.74123 4.46102 8.14323L1.05825 5.56058C-0.352751 8.35562 -0.352751 11.6401 1.05825 14.4351L4.46102 11.8525C4.25828 11.2545 4.1545 10.6283 4.15365 9.99786Z" fill="#F2C042"/>
<path d="M19.8914 8.18033H10.1995V12.2704H15.6915C15.3648 13.4269 14.6163 14.424 13.5893 15.0707L16.9658 17.6339C19.1234 15.727 20.3912 12.6262 19.8914 8.18033Z" fill="#5085ED"/>
<path d="M13.5879 15.0709C12.5444 15.6591 11.3548 15.9484 10.1533 15.9062C7.5677 15.9022 5.27478 14.2696 4.46093 11.853L1.05817 14.4356C2.77253 17.8386 6.29557 19.9925 10.1533 19.9963C12.6419 20.0629 15.0678 19.2212 16.9644 17.6332L13.5879 15.0709Z" fill="#57A75C"/>
</svg>
