<svg width="24" height="24" viewBox="0 0 24 24" fill="none" xmlns="http://www.w3.org/2000/svg">
<path d="M12 0.799988L12.3584 0.0847884C12.2472 0.0290421 12.1244 1.52588e-05 12 1.52588e-05C11.8756 1.52588e-05 11.7528 0.0290421 11.6416 0.0847884L12 0.799988ZM2.4 5.59999L2.0416 4.88479C1.90888 4.95129 1.79729 5.05341 1.7193 5.17972C1.64131 5.30603 1.60001 5.45154 1.6 5.59999H2.4ZM21.6 5.59999H22.4C22.4 5.45154 22.3587 5.30603 22.2807 5.17972C22.2027 5.05341 22.0911 4.95129 21.9584 4.88479L21.6 5.59999ZM8.8 16.8V16H8V16.8H8.8ZM15.2 16.8H16V16H15.2V16.8ZM0 24H24V22.4H0V24ZM11.6416 0.0847884L2.0416 4.88479L2.7584 6.31519L12.3584 1.51519L11.6416 0.0847884ZM21.9584 4.88479L12.3584 0.0847884L11.6416 1.51519L21.2416 6.31519L21.9584 4.88479ZM11.2 4.79999V8.79999H12.8V4.79999H11.2ZM11.2 8.79999V12.8H12.8V8.79999H11.2ZM8 9.59999H12V7.99999H8V9.59999ZM12 9.59999H16V7.99999H12V9.59999ZM1.6 5.59999V23.2H3.2V5.59999H1.6ZM20.8 5.59999V23.2H22.4V5.59999H20.8ZM9.6 23.2V16.8H8V23.2H9.6ZM8.8 17.6H15.2V16H8.8V17.6ZM14.4 16.8V23.2H16V16.8H14.4Z" fill="#0072FF"/>
</svg>
