<svg xmlns="http://www.w3.org/2000/svg" viewBox="0 0 254.3 80.83"><defs><style>.cls-1{fill:#f2f2f3;}</style></defs><title>Asset 2new</title><g id="Layer_2" data-name="Layer 2"><g id="Layer_1-2" data-name="Layer 1"><path class="cls-1" d="M87.85,17.19V50.93h5.78V28.27l10.56,16.05,10.55-16V50.93h5.79V17.19h-5.35l-11,17-11-17ZM136.92,27.5c-6.6,0-11.47,5.3-11.47,12a12,12,0,0,0,12.29,12,14.67,14.67,0,0,0,9.16-3.27L144,43.89a9.22,9.22,0,0,1-6.27,2.31,6.52,6.52,0,0,1-6.41-4.62h17.06c.05-.87.05-1.74.05-2.17A11.49,11.49,0,0,0,136.92,27.5Zm-5.59,9.88a5.25,5.25,0,0,1,5.59-4.62c3.81,0,5.64,2.65,5.74,4.62Zm43.19-22.89h-5.78v16a8.15,8.15,0,0,0-6.46-3c-5.93,0-11.13,5-11.13,12s5.2,12,11.13,12a7.89,7.89,0,0,0,6.89-3.56v3h5.35Zm-5.78,28.44a6.34,6.34,0,0,1-5.45,3.18c-3.9,0-6.26-2.85-6.26-6.61s2.36-6.6,6.26-6.6a6.34,6.34,0,0,1,5.45,3.18ZM190.9,27.5c-6.6,0-11.47,5.3-11.47,12a12,12,0,0,0,12.29,12,14.64,14.64,0,0,0,9.16-3.27L198,43.89a9.22,9.22,0,0,1-6.27,2.31,6.53,6.53,0,0,1-6.41-4.62h17.07c0-.87,0-1.74,0-2.17A11.49,11.49,0,0,0,190.9,27.5Zm-5.59,9.88a5.26,5.26,0,0,1,5.59-4.62c3.81,0,5.64,2.65,5.74,4.62Zm22,13.55h5.78V14.49h-5.78Zm12.9,0H226V14.49h-5.78ZM249,28.08v3a8.18,8.18,0,0,0-6.89-3.57c-5.93,0-11.14,5-11.14,12s5.21,12,11.14,12A7.91,7.91,0,0,0,249,47.94v3h5.35V28.08Zm-.43,14.85a6.4,6.4,0,0,1-5.4,3.18c-3.91,0-6.32-2.85-6.32-6.61s2.41-6.6,6.32-6.6a6.4,6.4,0,0,1,5.4,3.18Z"/><path class="cls-1" d="M60.29,47.18a.71.71,0,0,1-.25,0c-.1,0-.15,0-.14.13a.48.48,0,0,0,0,.12c0,.12,0,.17-.17.16h0c-.21,0-.21,0-.21.2s0,.2-.21.2-.2,0-.2.22,0,.17-.18.18h-.12c-.08,0-.12,0-.12.11v.11c0,.18,0,.18-.18.19h-.11c-.09,0-.13,0-.13.12s0,.05,0,.07c0,.22,0,.22-.22.22s-.18,0-.19.16,0,.23-.25.24a.3.3,0,0,0-.16,0c-.28.25-.54.52-.8.79h0a1.06,1.06,0,0,0-.42.42l-.21,0c-.18,0-.18,0-.19.18v0c0,.18,0,.18-.18.18h-.12c-.07,0-.1,0-.1.09s0,0,0,.07c0,.23,0,.23-.24.24s-.16,0-.17.18V52c0,.08,0,.11-.12.11h-.12c-.17,0-.17,0-.18.19v.09c0,.09,0,.13-.12.13s-.2,0-.27,0,0,.17,0,.27,0,.11-.1.11h-.26a.08.08,0,0,1-.09,0,.68.68,0,0,0-.34-.33c-.1,0-.13-.13-.14-.23a2.55,2.55,0,0,1,0-.39V.85a2.55,2.55,0,0,1,0-.39V.39c0-.13-.06-.32.13-.35s.37-.1.49.12.23.15.32.26h0a1.06,1.06,0,0,0,.42.42h0a1.06,1.06,0,0,0,.42.42h.1c.25,0,.26,0,.27.25s.06.17.17.16h0c.2,0,.21,0,.21.2s0,.2.21.2.2,0,.2.2,0,.2.21.2.21,0,.21.2,0,.21.2.21l.21,0c.12.23.38.34.51.57s.23.1.29.22h0a1.06,1.06,0,0,0,.42.42h0a1.21,1.21,0,0,0,.42.42h.07c.09,0,.2,0,.27,0s0,.16,0,.24,0,.13.12.13h.12c.17,0,.17,0,.18.16v.1c0,.1,0,.16.14.15h.1c.17,0,.18,0,.18.18s0,.22.21.22.2,0,.2.21,0,.19.18.19.25,0,.25.24,0,.17.16.17H61c.17,0,.17,0,.18.17v.12c0,.08,0,.13.13.12l.25,0c.1.18.29.27.42.41h0a10.21,10.21,0,0,1,.12,1.24q0,18.12,0,36.24a.93.93,0,0,1-.11.65h0a1.06,1.06,0,0,0-.42.42h0a1.67,1.67,0,0,0-.38.37l0,0a1.45,1.45,0,0,0-.37.37h0A1.16,1.16,0,0,0,60.29,47.18Z"/><path class="cls-1" d="M17.64,49.65a.86.86,0,0,0-.23,0c-.16,0-.16,0-.17-.18v0c0-.18,0-.18-.18-.19h-.12a.1.1,0,0,1-.11-.11V49c0-.11,0-.17-.15-.15h0c-.24,0-.24,0-.25-.24s0-.16-.17-.17h-.09c-.13,0-.16,0-.15-.16v0c0-.2,0-.21-.2-.21s-.23,0-.23-.24,0-.16-.16-.16h-.1c-.1,0-.15,0-.15-.15s0-.25-.26-.26l-.14,0c-.14-.13-.2-.33-.39-.4s-.27-.27-.41-.4,0,0,0,0c-.08-.19-.27-.26-.41-.39a.62.62,0,0,0-.27,0,.12.12,0,0,1-.14-.14v-.12c0-.09,0-.14-.13-.13h-.25c-.21-.1-.14-.28-.16-.44s0-.36,0-.54V8.48a1.08,1.08,0,0,1,.12-.72c.07-.08,0-.23.05-.33h0c.18,0,.37,0,.53-.15s.17-.19.27-.27l.09,0c.09,0,.2,0,.27,0s0-.18,0-.27,0-.13.13-.12h0c.23,0,.23,0,.25-.24s0-.16.17-.17h.09c.1,0,.15,0,.14-.13a.41.41,0,0,0,0-.11c0-.13.05-.17.17-.16H15c.13,0,.17,0,.16-.17a.4.4,0,0,1,0-.11c0-.1,0-.13.13-.12h0c.23,0,.25,0,.25-.24s0-.16.17-.17h.09C16,5,16,4.9,16,4.78a.4.4,0,0,1,0-.11c0-.09,0-.12.12-.12a.89.89,0,0,0,.28,0c.2-.08.27-.29.42-.42h0a.88.88,0,0,0,.36-.38c.14-.14.34-.22.44-.41l.07,0c.1,0,.21,0,.29,0s0-.19.05-.29,0-.1.09-.1h.07c.23,0,.23,0,.24-.22s0-.18.18-.19.22,0,.23-.22,0-.18.19-.19h.14c.07,0,.09,0,.09-.1s0-.2,0-.27.16,0,.25,0,.14,0,.13-.14V1.41c0-.1,0-.16.14-.15a.33.33,0,0,0,.1,0c.17,0,.17,0,.18-.18V1a.1.1,0,0,1,.11-.11h.26c.1-.08.23-.11.3-.23A.46.46,0,0,1,21,.42a.29.29,0,0,1,.44.21,4,4,0,0,1,0,.49V51.73c0,.17,0,.34,0,.51s0,.27-.13.33a.35.35,0,0,1-.41-.07h-.07c-.1,0-.2,0-.28,0s0-.17,0-.26,0-.13-.13-.13h-.07c-.22,0-.21,0-.21-.22s0-.17-.18-.18H19.8c-.09,0-.12,0-.12-.13v0c0-.24,0-.24-.24-.25s-.17,0-.17-.18,0-.24-.25-.23l-.16,0a1.06,1.06,0,0,0-.42-.42h0a1.71,1.71,0,0,0-.38-.38h0A1.09,1.09,0,0,0,17.64,49.65Z"/><path class="cls-1" d="M70.59,14.38h.33a1.47,1.47,0,0,0,.44.42h0a1.06,1.06,0,0,0,.42.42h0a1.19,1.19,0,0,0,.38.36c.14.27.46.39.6.67,0,.09.17.11.24.18h0a.92.92,0,0,0,.43.42h0a1.15,1.15,0,0,0,.42.43h0a.36.36,0,0,1,.11.25V51a1.2,1.2,0,0,1-.11.7h0c-.07.1-.18.13-.26.2a.81.81,0,0,1-.34.37c-.12.06-.13.22-.26.28h-.33a1.05,1.05,0,0,0-.44.42h0a1.06,1.06,0,0,0-.42.42h0a1.15,1.15,0,0,0-.43.42h0c-.14.12-.33.19-.41.38s-.27.27-.39.41h0a1.4,1.4,0,0,0-.42.42h0a1.4,1.4,0,0,0-.42.42h0c-.25.13-.36.44-.64.54,0,0-.06.06-.08.11a.38.38,0,0,1-.46.24c-.27-.05-.33.19-.45.33h0a1.06,1.06,0,0,0-.42.42h0a1.06,1.06,0,0,0-.42.42h0c-.26.12-.39.4-.63.56-.06.07-.08.17-.16.23h0a1.06,1.06,0,0,0-.42.42h0c-.12.14-.27.1-.42.1s-.31.06-.41-.11h0a.29.29,0,0,1-.11-.24c0-.14,0-.28,0-.42V10.82a3.9,3.9,0,0,1,.06-.76c0-.15.13-.27.26-.25a3.57,3.57,0,0,1,.64.11v0c0,.28,0,.28.27.3.09,0,.13,0,.14.14,0,.28,0,.28.3.28h.07a1.24,1.24,0,0,0,.43.42h0a.86.86,0,0,0,.43.41,1,1,0,0,0,.37.37,1.75,1.75,0,0,0,.46.44h0c.13.14.2.33.39.41a.86.86,0,0,0,.42.42c.08.19.27.26.41.38h0a1.21,1.21,0,0,0,.42.42h0A1.1,1.1,0,0,0,70.59,14.38Z"/><path class="cls-1" d="M2,51.7c-.4,0-.4,0-.4-.41a1.9,1.9,0,0,0-.37-.38.4.4,0,0,1-.12-.25,4,4,0,0,1,0-.6V18a2.63,2.63,0,0,1,0-.49.46.46,0,0,1,.22-.39.37.37,0,0,0,.17-.26.51.51,0,0,1,.31-.6s0,0,.06-.07a.51.51,0,0,1,.53-.29c.26,0,.35-.18.46-.35h0a1.48,1.48,0,0,0,.38-.37h0a1,1,0,0,0,.43-.42h0a1.06,1.06,0,0,0,.42-.42h0A1.06,1.06,0,0,0,4.53,14h0c.26-.12.38-.41.62-.56.07-.07.09-.17.17-.23h0c.1-.13.26-.1.39-.13a.69.69,0,0,0,.4-.23c.24-.19.37-.48.65-.63.12-.07.15-.28.29-.34a.62.62,0,0,0,.29-.31c.15-.14.35-.23.45-.42h0a.9.9,0,0,0,.42-.42h0a1.24,1.24,0,0,0,.43-.42h0A.28.28,0,0,1,9,10.19a.25.25,0,0,1,.14.27c0,.14,0,.27,0,.4V57.24c0,.14,0,.28,0,.41s0,.21-.14.25a.3.3,0,0,1-.33-.06,3.16,3.16,0,0,0-.42-.4h0A1.15,1.15,0,0,0,7.79,57h0a1.15,1.15,0,0,0-.43-.42h0A1.15,1.15,0,0,0,7,56.19H7a1.3,1.3,0,0,0-.37-.37h0s-.09,0-.1-.1c0-.22-.19-.23-.35-.24a.77.77,0,0,1-.54-.29c-.21-.2-.34-.5-.64-.61a.86.86,0,0,0-.42-.42c-.1-.14-.18-.29-.36-.35a1.79,1.79,0,0,0-.48-.47h0a1.21,1.21,0,0,0-.42-.42h0c-.12-.14-.19-.33-.38-.41a.8.8,0,0,0-.42-.41.74.74,0,0,0-.38-.36Z"/><path class="cls-1" d="M48.4,30a.2.2,0,0,1,0,.07c0,.31,0,.31-.29.33-.09,0-.13,0-.12.13a.28.28,0,0,1,0,.09c0,.18,0,.19-.18.19s-.22,0-.22.22,0,.17-.19.18h-.11c-.08,0-.11,0-.11.11s0,.2,0,.27-.18,0-.27,0-.12,0-.11.12v.05c0,.24,0,.24-.23.24s-.18,0-.19.19,0,.19-.19.2-.22,0-.23.23,0,.17-.17.17-.17,0-.24.05a1.52,1.52,0,0,0-.38.38h0a1.06,1.06,0,0,0-.42.42h0a1.1,1.1,0,0,0-.42.41h0a1.06,1.06,0,0,0-.43.41h0a3.23,3.23,0,0,0-.37.37h0a.44.44,0,0,0-.33.3.17.17,0,0,1-.1.13h-.3c-.08,0-.1,0-.11.11s0,.2,0,.27-.18,0-.27,0-.12,0-.11.11v.1c0,.2,0,.2-.21.2a.65.65,0,0,0-.2,0c-.28.26-.54.53-.81.8h0a.84.84,0,0,0-.42.43v.39c-.11.14-.29.19-.38.37s-.43.07-.47,0-.25-.22-.36-.34a1.87,1.87,0,0,1,0-.41.85.85,0,0,0,.31-.76c0-2.79,0-5.57,0-8.35-.09-6,0-11.94,0-17.91,0-.31.05-.62.05-.93a.75.75,0,0,0-.31-.77,2.67,2.67,0,0,1,0-.4c.18-.1.25-.31.42-.43h0a1.67,1.67,0,0,0,.38-.37.42.42,0,0,1,.27,0c.09,0,.14,0,.14-.13a1,1,0,0,1,0-.17c0-.06,0-.09.1-.09h0C41,7,41,7,41,6.71c0-.1,0-.14.14-.13h.07c.19,0,.21,0,.21-.22s0-.19.2-.19.22,0,.22-.22,0-.18.18-.18.24,0,.23-.24,0-.15.17-.16h.21c.13-.15.34-.22.43-.42h0c.19-.09.27-.3.42-.42h0c.2-.08.26-.31.43-.42H44c.24,0,.24,0,.25-.23s0-.17.17-.18h.1c.1,0,.16,0,.15-.14a.27.27,0,0,1,0-.09c0-.13,0-.16.16-.16s.26,0,.26-.26,0-.17.16-.15a.27.27,0,0,1,.09,0c.13,0,.17-.05.16-.17V2.65c0-.16,0-.16.17-.17h.09c.11,0,.16,0,.15-.14V2.2a.12.12,0,0,1,.13-.13h0c.23,0,.24,0,.24-.24s0-.16.16-.15.17,0,.25,0,.32-.2.41-.39h0c.18-.08.25-.27.38-.4h0c.09-.08.23-.11.3-.23a.43.43,0,0,1,.22-.2.27.27,0,0,1,.41.19,1.4,1.4,0,0,1,0,.35V29.47A.71.71,0,0,1,48.4,30Z"/><path class="cls-1" d="M46.78,63.18h.09c.28,0,.28,0,.3-.27,0-.1,0-.15.14-.14h.23a1.18,1.18,0,0,0,.44-.42h0a1.57,1.57,0,0,0,.45-.44,1.09,1.09,0,0,0,.38-.36h0a.9.9,0,0,0,.42-.42h0a.79.79,0,0,0,.41-.43c.19-.08.29-.28.42-.43a.85.85,0,0,0,.38-.37.92.92,0,0,0,.44-.41h.25a.12.12,0,0,0,.14-.12c0-.09,0-.2,0-.26s.2,0,.31,0h0a.94.94,0,0,0,.44-.42h0a1.15,1.15,0,0,0,.43-.42h0c.15-.12.33-.19.4-.38a.77.77,0,0,0,.43-.42c.19-.08.27-.27.39-.41h0a1.21,1.21,0,0,0,.42-.42h0c.25-.11.35-.4.62-.5s.12-.23.22-.32a.83.83,0,0,0,.37-.35c.08-.16.24-.16.39-.14s.33-.18.45-.33h0a1,1,0,0,0,.42-.42h0c.26-.12.38-.41.63-.56.06-.07.08-.17.17-.23h0a1.15,1.15,0,0,0,.43-.42h0a1.15,1.15,0,0,0,.43-.42h0a1.15,1.15,0,0,0,.43-.42h0c.25-.12.36-.41.62-.52a.2.2,0,0,0,.1-.12.38.38,0,0,1,.46-.25c.27,0,.32-.18.45-.33h0a1,1,0,0,0,.43-.43h0c.2-.09.26-.31.43-.42h0a1.37,1.37,0,0,0,.38-.38h0a1.36,1.36,0,0,0,.44-.42l.09,0c.28,0,.28,0,.3-.33v0a.28.28,0,0,1,.34-.09c.12,0,.14.15.15.26a5.05,5.05,0,0,1,.06.67q0,4.68,0,9.35a2.18,2.18,0,0,1-.1.8c-.13.17-.33.28-.43.47h0a1.8,1.8,0,0,0-.44.43h-.38c-.29.24-.54.54-.81.8h0a1.06,1.06,0,0,0-.42.42h0a1.06,1.06,0,0,0-.42.42h0a1.06,1.06,0,0,0-.42.42h0a3.75,3.75,0,0,0-.8.79h0a1.13,1.13,0,0,0-.42.42h0c-.1.13-.23.11-.37.1a.27.27,0,0,0-.32.19s0,0,0,0c-.29.16-.4.49-.7.64-.11,0-.12.17-.19.25s-.35.23-.45.42h0a1,1,0,0,0-.43.42h0a1,1,0,0,0-.42.42h0c-.19.09-.27.29-.41.44a1.16,1.16,0,0,0-.38.35h0a1.06,1.06,0,0,0-.42.42h0a1.47,1.47,0,0,0-.44.42h-.12c-.24,0-.24,0-.26.24s0,.17-.17.17h-.21a1.44,1.44,0,0,0-.47.45,1,1,0,0,0-.38.36h0a.9.9,0,0,0-.42.42,1.93,1.93,0,0,0-.35.35,5.67,5.67,0,0,0-.48.5,1.12,1.12,0,0,0-.39.36h0a1,1,0,0,0-.42.42h0a1.36,1.36,0,0,0-.44.42h-.07c-.27,0-.27,0-.3.27,0,.09,0,.14-.13.14h-.26a1.11,1.11,0,0,0-.43.43h0a8.21,8.21,0,0,0-1.22,1.21h0a1.57,1.57,0,0,0-.45.44c-.26.12-.35.44-.63.53-.07.08-.1.19-.18.26s-.3.26-.43.41H45.4c-.26,0-.26,0-.27.26,0,.11-.05.16-.17.15h-.23a1.05,1.05,0,0,0-.44.42h0a5.71,5.71,0,0,0-.82.81,1.12,1.12,0,0,0-.4.41h0a1.33,1.33,0,0,0-.43.42h0a1.33,1.33,0,0,0-.43.42h0c-.25.13-.36.41-.63.53-.1,0-.09.2-.18.26A1.41,1.41,0,0,0,41,80c-.08.12-.22.06-.34.06-.27,0-.32.19-.45.33h0a.27.27,0,0,1-.34.07c-.14,0-.13-.19-.14-.32-.07-1.07-.07-2.14-.05-3.21,0-1.41.06-2.83,0-4.24,0-.72,0-1.44,0-2.16a3.26,3.26,0,0,1,.07-.7l0-.07c.06-.1.18-.12.27-.19s.06-.17.13-.24l.05,0a.76.76,0,0,0,.4-.39h0a1.06,1.06,0,0,0,.42-.42h0a1.15,1.15,0,0,0,.43-.42h0c.27-.13.39-.41.63-.56.06-.08.08-.18.17-.23h0c.1-.14.25-.11.39-.13a.3.3,0,0,0,.26-.13.69.69,0,0,1,.34-.29c.11,0,.09-.19.18-.24a3.39,3.39,0,0,0,.67-.64c.2-.21.51-.33.63-.63h0a1,1,0,0,0,.43-.42h0a1.06,1.06,0,0,0,.42-.42h0c.27-.26.53-.53.79-.79h0A1.29,1.29,0,0,0,46.78,63.18Z"/><path class="cls-1" d="M32.79,78.35H32.7c-.28,0-.28,0-.3-.27,0-.09,0-.14-.14-.14a1.76,1.76,0,0,1-.23,0,1.26,1.26,0,0,0-.44-.42h0c-.14-.26-.44-.37-.58-.63,0-.07-.16-.06-.21-.13s-.22-.35-.42-.43S30.16,76,30,75.9a.84.84,0,0,0-.43-.42c-.08-.19-.26-.27-.41-.39h0a1.11,1.11,0,0,0-.43-.43h-.07c-.1,0-.2,0-.28,0s0-.18-.05-.27a.1.1,0,0,0-.13-.11h-.23a1.47,1.47,0,0,0-.44-.42h0a1.06,1.06,0,0,0-.42-.42h0a1.16,1.16,0,0,0-.38-.35c-.15-.14-.23-.34-.42-.44h0a.9.9,0,0,0-.42-.42h0a.9.9,0,0,0-.42-.42h0a5.43,5.43,0,0,0-.85-.81h0c-.09,0-.2,0-.28,0s0-.17-.05-.26,0-.12-.13-.12h-.25a1.6,1.6,0,0,0-.44-.42h0a1.06,1.06,0,0,0-.42-.42h0a8.41,8.41,0,0,0-.79-.79h0a1.06,1.06,0,0,0-.42-.42h0a1,1,0,0,0-.43-.42h0a.88.88,0,0,0-.44-.41c-.09-.13-.22-.22-.32-.34s-.46-.37-.58-.65-.21-.14-.34-.14-.27,0-.37-.1h0a1.4,1.4,0,0,0-.42-.42h0c-.09,0-.11-.16-.18-.23a1,1,0,0,1-.31-.33c-.06-.13-.24-.11-.31-.23h0a1.15,1.15,0,0,0-.43-.42h0a1.06,1.06,0,0,0-.42-.42h0a1.05,1.05,0,0,0-.44-.42h-.33c-.14-.26-.41-.4-.61-.6a2.79,2.79,0,0,0-.67-.61h0c-.12-.14-.2-.33-.39-.41a3.71,3.71,0,0,0-.82-.81h0a1.4,1.4,0,0,0-.42-.42h0a1.24,1.24,0,0,0-.43-.42h0a1.06,1.06,0,0,0-.43-.41h0a1.65,1.65,0,0,0-.3-.29.36.36,0,0,1-.17-.31c0-.12,0-.24,0-.35v-9.9c0-.11,0-.24.15-.29a.33.33,0,0,1,.38.08h0c.12.14.2.33.39.41a1.15,1.15,0,0,0,.39.4,4.28,4.28,0,0,0,.45.4h.12c.26,0,.27,0,.28.26s0,.16.15.15h.21a1.6,1.6,0,0,0,.44.42h0a1.06,1.06,0,0,0,.42.42h0a1.06,1.06,0,0,0,.42.42h0l.8.79h0c.11.17.21.35.44.37a.54.54,0,0,0,.25,0,.2.2,0,0,1,.19.07,1.52,1.52,0,0,0,.33.34,3.56,3.56,0,0,0,.42.45l.42.38h0a1.33,1.33,0,0,0,.43.42h0a1.33,1.33,0,0,0,.43.42h0a1,1,0,0,0,.43.42h0a1.34,1.34,0,0,0,.37.38h0a1.06,1.06,0,0,0,.42.42h0a1.06,1.06,0,0,0,.42.42h0c.12.15.17.38.44.33a.37.37,0,0,1,.46.25.29.29,0,0,0,.14.15.57.57,0,0,1,.29.26c.06.12.23.12.3.23h0a1.06,1.06,0,0,0,.42.42h0a1.06,1.06,0,0,0,.42.42h0c.12.15.2.33.39.41a1.15,1.15,0,0,0,.4.42c.15.11.26.28.43.39h0a1.13,1.13,0,0,0,.43.41h0a1,1,0,0,0,.44.43h.05c.09,0,.21,0,.29,0s0,.18,0,.27,0,.12.13.12h.25c.09.06.11.18.19.25a.76.76,0,0,1,.38.35c0,.1.18.08.24.17s.22.34.42.42.22.35.42.44a.86.86,0,0,0,.42.42c.08.18.27.26.41.38h0a1.06,1.06,0,0,0,.42.42h0a1,1,0,0,0,.44.42h.1c.25,0,.28,0,.27.25,0,.12,0,.16.16.16a1.76,1.76,0,0,1,.23,0,1.21,1.21,0,0,0,.44.43h0c.26.27.52.53.79.79h0a1,1,0,0,0,.42.42h0a.92.92,0,0,0,.43.42h0c.1.07.1.22.22.27a.62.62,0,0,1,.32.3c0,.12.2.1.26.2.14.28.43.44.63.67s.31.51.66.49c.14,0,.3,0,.38.15v.33a.48.48,0,0,1,.11.34c0,.3,0,.59,0,.89v8.84c0,.14,0,.28,0,.42s0,.25-.14.29a.32.32,0,0,1-.39-.07h0a1.15,1.15,0,0,0-.43-.42h0a1.15,1.15,0,0,0-.43-.42h0c-.12-.14-.19-.33-.39-.41s-.26-.27-.4-.38h0A1.07,1.07,0,0,0,32.79,78.35Z"/><path class="cls-1" d="M34.85,55.39h-.12c-.26,0-.27,0-.28-.26s0-.16-.15-.15h-.14c-.09,0-.12,0-.13-.13s0-.2-.05-.26-.18,0-.27,0h-.05a1.24,1.24,0,0,0-.43-.42h0a1,1,0,0,0-.38-.35c-.14-.15-.22-.34-.42-.42-.14-.27-.44-.39-.56-.66-.05-.11-.21-.11-.28-.2h0c-.09-.16-.25-.24-.37-.36a4.35,4.35,0,0,0-.48-.48c-.08-.18-.26-.27-.4-.39h0a1.24,1.24,0,0,0-.39-.4c-.09-.31-.45-.37-.59-.64,0-.08-.16-.08-.25-.09a.5.5,0,0,1-.54-.28c-.05-.1-.17-.13-.24-.22h0a1.13,1.13,0,0,0-.42-.42h0a1,1,0,0,0-.42-.42h0a1,1,0,0,0-.42-.42h0a1.12,1.12,0,0,0-.39-.36c-.15-.28-.47-.39-.61-.67-.05-.11-.25-.07-.28-.22a1,1,0,0,1-.05-.39V37a1,1,0,0,1,.06-.41.35.35,0,0,1,.55.05,1.77,1.77,0,0,0,.3.31h0c.12.15.18.37.44.35a.44.44,0,0,1,.5.29c0,.1.2.08.24.17.13.28.47.37.59.65,0,.12.2.12.28.2a1.24,1.24,0,0,0,.42.4h0a1.13,1.13,0,0,0,.42.42h0a1.21,1.21,0,0,0,.42.42h0c.12.14.19.33.38.4a1,1,0,0,0,.38.37,1.68,1.68,0,0,0,.47.45h.07c.1,0,.21,0,.29,0s0,.17,0,.26.05.12.13.12H32a1.6,1.6,0,0,0,.44.42h0a1.06,1.06,0,0,0,.42.42h0a1.07,1.07,0,0,0,.38.35c.13.14.22.34.42.42s.23.34.42.44h0a1,1,0,0,0,.43.42h0a5.5,5.5,0,0,0,.86.81h.23c.12,0,.17.05.16.17a.27.27,0,0,1,0,.09c0,.11.05.15.16.15a.74.74,0,0,1,.21,0,1.6,1.6,0,0,0,.44.42h0a.82.82,0,0,0,.43.39c.11.12.14.31.38.3s.34-.06.4-.26c0,0,0,0,0,0,.21,0,.26-.25.38-.38h0a1.13,1.13,0,0,0,.42-.42h0c.23-.12.35-.35.54-.51a.35.35,0,0,0,.2-.18.41.41,0,0,1,.2-.19.39.39,0,0,0,.23-.24.24.24,0,0,1,.1-.12.89.89,0,0,0,.39-.38c.08-.14.23-.12.37-.11s.32-.19.44-.33h0a1,1,0,0,0,.42-.42h0c.15-.12.34-.19.41-.39s.27-.25.39-.4h0a1.13,1.13,0,0,0,.42-.42h0a1.13,1.13,0,0,0,.42-.42h0c.25-.12.37-.41.63-.52.1,0,.1-.21.19-.26a1.38,1.38,0,0,0,.44-.46c.08-.13.23-.07.35-.07s.32-.18.44-.33h0c.19-.09.25-.31.42-.43h0a1.12,1.12,0,0,0,.36-.39.86.86,0,0,0,.43-.41h0a1.06,1.06,0,0,0,.42-.42h0a1.15,1.15,0,0,0,.43-.42h0a1.46,1.46,0,0,0,.42-.4A.93.93,0,0,0,48,36.6c.1-.2.28-.14.45-.09a.16.16,0,0,1,0,.07,1.35,1.35,0,0,1,0,.53c0,3.37,0,6.74,0,10.1,0,.14,0,.29-.1.39h0c-.26.13-.37.44-.65.56s-.42.41-.58.66h-.11c-.26,0-.26,0-.28.27,0,.1-.05.14-.15.13a.4.4,0,0,1-.11,0c-.12,0-.18.05-.16.17a.27.27,0,0,0,0,.09c0,.1,0,.16-.15.15h-.26a1.49,1.49,0,0,0-.37.38c-.13.16-.33.24-.44.42h0a1.06,1.06,0,0,0-.42.42h0a1.06,1.06,0,0,0-.42.42h0a1.06,1.06,0,0,0-.42.42h0a5.36,5.36,0,0,0-.79.79h0a1.06,1.06,0,0,0-.42.42h0a1.15,1.15,0,0,0-.43.42h0c-.27.12-.38.44-.66.56-.08.07-.11.18-.18.25s-.26.28-.4.41h-.09c-.09,0-.19,0-.27,0s0,.17,0,.26,0,.12-.13.12h-.27c-.14.1-.23.24-.34.33s-.42.51-.73.66c-.06.07-.09.17-.17.23h0a1.06,1.06,0,0,0-.42.42h0a1.06,1.06,0,0,0-.42.42h0c-.07.09-.18.11-.24.2a.66.66,0,0,1-1,.22h0A1.24,1.24,0,0,0,36.5,57h0a1.21,1.21,0,0,0-.42-.42h0c-.13-.14-.18-.33-.38-.4s-.14-.29-.32-.32A2.1,2.1,0,0,0,34.85,55.39Z"/><path class="cls-1" d="M28.28,1.63c.08.08.18.05.27.05s.16,0,.15.14a.34.34,0,0,0,0,.1c0,.12.05.16.16.15h.05c.2,0,.2,0,.2.21s0,.2.21.2.21,0,.21.2,0,.2.2.21.22,0,.22.22,0,.18.2.19.2,0,.21.22,0,.16.18.17h.11c.09,0,.12.05.13.13s-.05.21,0,.26a.52.52,0,0,0,.25,0h.1a1.21,1.21,0,0,0,.42.42h0A1.13,1.13,0,0,0,32,5h0a2.22,2.22,0,0,0,.38.37c.08.08.19,0,.29,0s.13,0,.12.12v0c0,.23,0,.23.23.24s.19,0,.19.2,0,.2.18.2.24,0,.24.23,0,.17.18.18h.11c.08,0,.11,0,.12.11s0,.2,0,.27.18,0,.27,0,.11,0,.1.11v.25a1.08,1.08,0,0,1,.11.61V36.32a1.73,1.73,0,0,1-.06.6c-.16.19-.31.19-.48,0h0a1.62,1.62,0,0,0-.37-.37c-.07-.06-.15,0-.22,0s-.18,0-.19-.17v-.1c0-.09,0-.12-.13-.12h0c-.26,0-.25,0-.25-.24s0-.16-.17-.17h-.09c-.11,0-.17,0-.16-.14s0,0,0,0c0-.23,0-.23-.24-.24s-.16,0-.17-.17V35q0-.16-.15-.15h-.07c-.18,0-.19,0-.19-.2s0-.19-.19-.2h-.11c-.08,0-.12,0-.12-.11v-.12c0-.17,0-.17-.19-.17l-.2,0a1.56,1.56,0,0,0-.43-.42h0a1.1,1.1,0,0,0-.42-.41h0a2.59,2.59,0,0,0-.37-.37c-.05-.06-.12-.05-.18-.05-.23,0-.23,0-.23-.22s0-.17-.17-.18h-.09c-.13,0-.17,0-.16-.16v-.12a.11.11,0,0,0-.11-.12c-.09,0-.2,0-.27,0s0-.18,0-.27,0-.12-.12-.11H28.1c-.2,0-.21,0-.21-.2s0-.21-.22-.21-.19,0-.19-.2,0-.19-.21-.2a.34.34,0,0,1-.2,0,1.38,1.38,0,0,0-.33-.31.41.41,0,0,1-.18-.49s0-.05,0-.08a2.41,2.41,0,0,1,0-.38,4.34,4.34,0,0,1,0-.51V1.53c0-.14,0-.28,0-.42,0-.31.08-.37.4-.37h.11c.16,0,.32-.05.44.1h0a1.06,1.06,0,0,0,.42.42h0A1.62,1.62,0,0,0,28.28,1.63Z"/><path class="cls-1" d="M20.9,52.5h.25c.12,0,.18,0,.18-.17V1.22c0-.18,0-.37,0-.56s0-.19-.17-.19S21,.5,21,.64a.26.26,0,0,1-.07.19.26.26,0,0,1,0-.4A.37.37,0,0,0,21,.23c0-.17,0-.17.18-.18s.17,0,.19.17,0,.17.21.18.19,0,.2.2V52.25c0,.18,0,.36,0,.53s0,.13-.13.13h-.51c-.11,0-.16,0-.15-.14A.88.88,0,0,0,20.9,52.5Z"/><path class="cls-1" d="M8.22,57.44h.09c.28,0,.29,0,.32.27s.12.12.21.13.17,0,.17-.14,0-.41,0-.61v-46c0-.18,0-.37,0-.56s0-.22-.24-.23H8.63v-.14c0-.27,0-.29.28-.27l.37,0c.09,0,.13,0,.13.15s0,.31,0,.46v47.2c0,.09,0,.16-.13.16s-.23.08-.25.24-.29.19-.38.1,0-.14,0-.2,0-.17-.14-.18-.18,0-.24,0,0-.18,0-.28S8.22,57.47,8.22,57.44Z"/><path class="cls-1" d="M53.3.42V52.16a1.09,1.09,0,0,0,0,.18.15.15,0,0,0,.14.16c.27,0,.27,0,.27.31v.1a.71.71,0,0,1-.8,0c0-.08,0-.17,0-.25V.7c0-.1,0-.19,0-.28A.23.23,0,0,1,53.3.42Z"/><path class="cls-1" d="M66,9.92c-.21,0-.42,0-.63,0s-.17,0-.18.17,0,.41,0,.61V57.5c0,.39,0,.77,0,1.16-.46,0-.37,0-.38-.35s0-.6,0-.91V10.06c0-.18,0-.18.19-.2s.21,0,.23-.23.08-.15.19-.15.17,0,.19.15,0,.19.22.2S66,9.81,66,9.92Z"/><path class="cls-1" d="M61.93,45.55V7.42a.34.34,0,0,1,0,.2c0,.12,0,.17.16.18s.21,0,.21.24V44.69a4.22,4.22,0,0,1,0,.62c0,.17,0,.17-.2.2A.39.39,0,0,0,61.93,45.55Z"/><path class="cls-1" d="M73.83,51.66a2.11,2.11,0,0,1,0-.25c0-.38,0-.75,0-1.12v-33c.37,0,.37,0,.39.35,0,.11,0,.23,0,.35V50.68c0,.16,0,.31,0,.47a.24.24,0,0,1-.12.25.27.27,0,0,0-.14.16A.15.15,0,0,1,73.83,51.66Z"/><path class="cls-1" d="M12.75,7.43a4,4,0,0,1,0,.6c0,.32,0,.65,0,1V45.13a.23.23,0,0,1-.38,0V8c0-.1,0-.16.14-.16s.23,0,.24-.26C12.71,7.51,12.7,7.46,12.75,7.43Z"/><path class="cls-1" d="M0,17.67a1.71,1.71,0,0,1,.39,0,.35.35,0,0,1,.45,0,.32.32,0,0,1,.08.23c0,.13,0,.25,0,.38Q1,34,1,49.87a1,1,0,0,1-.08.61.39.39,0,0,1-.45,0,.35.35,0,0,1-.11-.27c0-.17,0-.33,0-.49V18.57C.31,18.24.36,17.89,0,17.67Z"/><path class="cls-1" d="M0,17.67H.12c.32,0,.29,0,.29.32q0,5.57,0,11.15V50.44a.58.58,0,0,1-.41,0c0-.09,0-.19,0-.28Q0,34.07,0,18A.57.57,0,0,1,0,17.67Z"/><path class="cls-1" d="M.82,50.46c0-.54,0-1.08,0-1.63V18.72c0-.36,0-.72,0-1.08s-.1-.32.09-.44a1,1,0,0,0,.29-.29c.12-.19.24-.2.44-.07V17c0,.23,0,.24-.23.3a.16.16,0,0,0-.15.17,6.13,6.13,0,0,0-.05.74q0,15.92,0,31.82c0,.24,0,.48.05.72,0,.08,0,.14.14.15s.24,0,.24.29v.14H1.39c-.12,0-.18,0-.17-.16v0c0-.22,0-.22-.23-.23H.85A.28.28,0,0,1,.82,50.46Z"/><path class="cls-1" d="M48.4,30V1.07c0-.15,0-.3,0-.44s0-.16-.18-.17S48,.49,48,.61s0,.16-.06.22a.27.27,0,0,1,0-.41c.07-.07.05-.16.05-.24s.08-.12.16-.12.18,0,.19.11a.28.28,0,0,1,0,.09c0,.11,0,.15.16.15s.25,0,.25.28c0,2.1,0,4.2,0,6.3V29.18c0,.19,0,.39,0,.58s0,.19-.19.2Z"/><path class="cls-1" d="M34.44,36.92V8.17c0-.27,0-.54,0-.82.08.08.17.05.27.06a.12.12,0,0,1,.14.14c0,.16,0,.32,0,.49V36.32c0,.2,0,.39,0,.59A.26.26,0,0,1,34.44,36.92Z"/><path class="cls-1" d="M27.09.83h-.16c-.26,0-.28,0-.28.29V28.29c0,.42,0,.84,0,1.26l-.06.06c-.17.08-.15.16,0,.24s.05,0,.07.06V30a.28.28,0,0,1-.42,0h-.36a.7.7,0,0,1,0-.43.66.66,0,0,0,.31-.64c0-.42,0-.85,0-1.28,0-5.94,0-11.88,0-17.82,0-2.8,0-5.61,0-8.42a4.8,4.8,0,0,1,0-.93.06.06,0,0,0,0,0c.05-.39.09-.42.5-.34h0a1.6,1.6,0,0,0,.41.37h0A.28.28,0,0,1,27.09.83Z"/><path class="cls-1" d="M25.86,29.54V30c-.08-.05-.07-.13-.07-.21s0-.18-.17-.2-.19,0-.19-.23c0-.41,0-.83,0-1.24V.58c0-.1,0-.15.15-.17s.19,0,.21-.21A.3.3,0,0,1,25.85,0c.16.1.09.25.1.39a3.93,3.93,0,0,1,0,.49v28C26,29.14,26,29.36,25.86,29.54Z"/><path class="cls-1" d="M39.39,8.62c.41,0,.42,0,.41.43-.07,6.11,0,12.23,0,18.34,0,3.06,0,6.11,0,9.17a3.76,3.76,0,0,1,0,.58c0,.18,0,.19-.21.2h-.17c0-.09,0-.18,0-.28V8.88C39.38,8.79,39.39,8.71,39.39,8.62Z"/><path class="cls-1" d="M12.74,49.24h-.28a.12.12,0,0,0-.14.13V59.74c0,.12,0,.18.17.19s.19,0,.2.21v.16h-.18c-.21,0-.22,0-.24-.21s0-.16-.15-.17-.22,0-.22-.26V49.55c0-.18,0-.35,0-.52s0-.18.17-.19a3.69,3.69,0,0,1,.47,0c.15,0,.16,0,.18.17S12.74,49.16,12.74,49.24Z"/><path class="cls-1" d="M39.4,80.83c-.47,0-.43,0-.43-.45V70c0-.17,0-.18.19-.2s.21,0,.23-.24.06-.18.19-.18a3,3,0,0,1,.6,0s0,0,0,0,0,0,0,0h0a.77.77,0,0,0-.33.38l-.06,0h0c-.31.2-.3.5-.3.82v9.75C39.5,80.49,39.54,80.68,39.4,80.83Z"/><path class="cls-1" d="M34.86,80.41c.41,0,.41,0,.41-.42V69.93c0-.08,0-.15,0-.23.38,0,.38,0,.41.44V80c0,.2,0,.39,0,.58s0,.15-.1.15a4.63,4.63,0,0,1-.51,0c-.16,0-.17,0-.18-.18Z"/><path class="cls-1" d="M39.4,80.83a1.27,1.27,0,0,1,0-.28V70.35c0-.15,0-.29,0-.44s0-.15.15-.15h.26a5.49,5.49,0,0,1,0,.81c0,1.66.08,3.31,0,5,0,1.14,0,2.29,0,3.43,0,.41,0,.83,0,1.25,0,.17,0,.19.19.2h.18c0,.11,0,.25,0,.34s-.21,0-.32.06A2.13,2.13,0,0,1,39.4,80.83Z"/><path class="cls-1" d="M25.85,36.54V47.17a.23.23,0,0,1-.4,0,1.49,1.49,0,0,1,0-.21V36.71c0-.06,0-.11,0-.17A.26.26,0,0,1,25.85,36.54Z"/><path class="cls-1" d="M62.72,60.29c0-.27,0-.54,0-.81V50c0-.18,0-.36,0-.54s0-.16-.18-.17h-.21a2.26,2.26,0,0,0,0-.26c0-.11,0-.17.16-.17s.23,0,.27.19.1.13.18.16.19.06.19.26v9.91c0,.24,0,.48,0,.72s0,.21-.23.23h-.14S62.74,60.31,62.72,60.29Z"/><path class="cls-1" d="M48.4,47.6v-.37a1.14,1.14,0,0,0,.26-.94q0-4.57,0-9.14a.66.66,0,0,0-.27-.61h0c-.13-.06-.28,0-.41,0,0-.39,0-.39.37-.38h.21c.22,0,.24,0,.24.24s0,.2,0,.3v10.6c0,.34,0,.34-.35.34Z"/><path class="cls-1" d="M44.71,65.24v.09c0,.28,0,.28-.27.32-.09,0-.13,0-.15.15s0,.23-.23.24-.18.06-.19.18,0,.21-.22.23-.17,0-.2.2,0,.2-.22.22-.16,0-.18.11-.2.28-.4.28-.11-.26,0-.39l.07,0c.2,0,.35,0,.33-.29,0-.07.05-.11.12-.11h.16c.08,0,.11,0,.12-.11a.86.86,0,0,1,0-.16.12.12,0,0,1,.13-.13h.12c.11,0,.17,0,.16-.15s0-.26.26-.25.16,0,.17-.16,0-.24.25-.24Z"/><path class="cls-1" d="M1.64,16.84H1.5c-.19,0-.27,0-.26.24s-.05.18-.17.17H1c-.1,0-.15,0-.15.14a2,2,0,0,1,0,.25,1.78,1.78,0,0,1-.4,0v-.12c0-.23,0-.24.24-.26s.17-.07.18-.19,0-.21.22-.23.17,0,.19-.19,0-.21.22-.22.17-.06.18-.18,0-.22.22-.23.18,0,.2-.16.23-.22.4-.24c.15.13.13.26,0,.39a.43.43,0,0,1-.22,0c-.14,0-.19.05-.18.18v.09c0,.08,0,.11-.12.11H1.81c-.1,0-.16,0-.16.15S1.64,16.75,1.64,16.84Z"/><path class="cls-1" d="M28.7,38.59h-.07c-.1,0-.21,0-.29,0s0-.17-.05-.26-.05-.11-.13-.11h-.11c-.16,0-.16,0-.18-.18v0c0-.18,0-.18-.19-.19s-.21,0-.23-.2-.07-.19-.2-.18a.34.34,0,0,1-.18,0c-.12-.13-.15-.26,0-.39s.37,0,.41.28.1.1.18.11.18,0,.2.2,0,.2.23.22.18,0,.19.19,0,.2.22.22.19,0,.2.22a.36.36,0,0,0,.06.2A0,0,0,0,1,28.7,38.59Z"/><path class="cls-1" d="M44.7,39.81h-.11c-.23,0-.24,0-.26.23s-.06.18-.19.18-.21,0-.23.21,0,.19-.19.19-.23,0-.23.23,0,.17-.18.17h-.23v-.09c0-.22,0-.31.25-.3.1,0,.15-.05.16-.15s0-.23.25-.25.16-.09.17-.2,0-.2.22-.22.14,0,.17-.12c.06-.29.07-.29.35-.29h.07A.26.26,0,0,1,44.7,39.81Z"/><path class="cls-1" d="M40.6,43.5h-.09c-.25,0-.26,0-.28.25s-.06.17-.18.16H40q-.16,0-.15.15s0,.07,0,.11a.12.12,0,0,1-.14.14h-.09c-.17,0-.17,0-.18.16s0,.23-.26.22c-.06,0-.11,0-.17,0v-.11c0-.23,0-.24.24-.26s.17-.07.18-.2,0-.2.21-.22.19,0,.21-.2,0-.19.22-.21.17,0,.19-.16c.05-.26.06-.26.33-.26h.07A.28.28,0,0,1,40.6,43.5Z"/><path class="cls-1" d="M40.6,80h.1c.25,0,.26,0,.29-.26s.06-.15.18-.16.21,0,.23-.21,0-.19.19-.19.24,0,.24-.22,0-.17.17-.18h.23a.31.31,0,0,1,0,.1c0,.26,0,.26-.25.29s-.16.06-.17.18,0,.21-.22.23-.18,0-.2.19,0,.2-.24.22S41,80,41,80.1a.34.34,0,0,1-.42.3A.27.27,0,0,1,40.6,80Z"/><path class="cls-1" d="M7.38,11.53v.12c0,.23,0,.24-.24.26S7,12,7,12.09s0,.23-.22.23-.17,0-.19.2,0,.19-.23.21-.15,0-.17.14,0,.23-.27.24l-.14,0a.24.24,0,0,1,0-.39l.09,0c.09,0,.2,0,.27,0s0-.18,0-.27,0-.11.12-.11h.16c.08,0,.12,0,.12-.11a.86.86,0,0,0,0-.16c0-.1,0-.14.15-.14h.14c.08,0,.12,0,.13-.13s0-.17,0-.24A.52.52,0,0,1,7.38,11.53Z"/><path class="cls-1" d="M18.85,54.56h-.09c-.09,0-.19,0-.27,0s0-.16,0-.24,0-.12-.11-.12h-.14c-.11,0-.15-.05-.16-.15s0-.24-.25-.25-.17-.06-.16-.18V53.5c0-.11-.06-.15-.16-.15a.87.87,0,0,1-.23,0c-.13-.13-.16-.25,0-.38,0,.25.14.36.39.36l.25,0c.13,0,.18,0,.19.18s0,.21.22.23.15.07.16.18,0,.21.23.23.18,0,.19.2A1.28,1.28,0,0,1,18.85,54.56Z"/><path class="cls-1" d="M15.17,62.77h.12c.09,0,.19,0,.27,0s0,.16,0,.24.05.12.13.13h.14c.11,0,.15,0,.15.15v.12a.11.11,0,0,0,.11.12h.09c.21,0,.21,0,.22.24V64h-.16c-.24,0-.24,0-.28-.25a.15.15,0,0,0-.16-.16c-.22,0-.22,0-.26-.25a.13.13,0,0,0-.13-.13c-.09,0-.2,0-.26-.06s0-.2,0-.3Z"/><path class="cls-1" d="M5,54.55h.12c.23,0,.29,0,.28.26,0,.12.06.16.18.15s.23,0,.23.21,0,.17.19.19a.51.51,0,0,1,.21,0c.12.13.15.26,0,.38H6c-.23,0-.24,0-.27-.24a.15.15,0,0,0-.15-.14c-.2,0-.2,0-.24-.25S5.28,55,5.16,55s-.2,0-.22-.21a.45.45,0,0,0,0-.2S4.93,54.54,5,54.55Z"/><path class="cls-1" d="M25.85,36.54h-.41c0-.5,0-.4.42-.42H26c.25,0,.25,0,.3.25a.13.13,0,0,0,.13.13c.08,0,.18,0,.24,0s0,.18,0,.27a.29.29,0,0,1,0,.09h-.11c-.23,0-.24,0-.27-.23a.14.14,0,0,0-.16-.15Z"/><path class="cls-1" d="M19.68,66.46h.14c.26,0,.26,0,.29.25a.16.16,0,0,0,.15.17c.2,0,.2,0,.23.24s.05.15.16.17c.26,0,.26,0,.26.3v.07a.52.52,0,0,1-.37,0s0,0,0,0c0-.22,0-.39-.32-.34-.07,0-.1-.05-.1-.11a.86.86,0,0,1,0-.16c0-.1,0-.14-.15-.13l-.23,0A.26.26,0,0,1,19.68,66.46Z"/><path class="cls-1" d="M68.53,56.19h.06c.26,0,.26,0,.29-.26a.13.13,0,0,1,.15-.14h.16a.11.11,0,0,0,.11-.12c0-.08,0-.18,0-.24s.19,0,.29,0h.09s0,.09,0,.14c0,.24,0,.25-.25.27s-.17.06-.18.19,0,.18-.2.2-.19,0-.22.21,0,.2-.22.2H68.5C68.38,56.45,68.37,56.31,68.53,56.19Z"/><path class="cls-1" d="M47.18,74.25s0-.07,0-.1c0-.28,0-.28.27-.32a.13.13,0,0,0,.12-.14.41.41,0,0,0,0-.11.13.13,0,0,1,.14-.15c.24,0,.25,0,.27-.25S48,73,48.14,73h.26s0,.06,0,.09c0,.28,0,.29-.28.31-.11,0-.15.06-.14.17v.11a.11.11,0,0,1-.12.12h-.12c-.16,0-.16,0-.18.17v.12c0,.09,0,.12-.14.12Z"/><path class="cls-1" d="M34.86,69.31h-.13c-.24,0-.24,0-.28-.24s-.07-.12-.16-.14-.2,0-.23-.22,0-.17-.2-.19-.2,0-.21-.22a.53.53,0,0,0,0-.2s0,0,0,0h.09c.28,0,.28,0,.32.28,0,.09,0,.14.14.13h.14c.08,0,.12,0,.12.11v.12c0,.17,0,.17.2.18l.2,0C35,69.06,35,69.18,34.86,69.31Z"/><path class="cls-1" d="M25.45,47.18h.4l.09,0c.25,0,.26,0,.29.25a.17.17,0,0,0,.17.16c.23,0,.24,0,.26.26a.25.25,0,0,0,.05.15,0,0,0,0,1-.06,0h-.09c-.09,0-.19,0-.27,0s0-.17-.06-.26,0-.12-.11-.11a1.91,1.91,0,0,1-.48-.06c-.18,0-.18,0-.19-.19Z"/><path class="cls-1" d="M56.61,65.61v-.14c0-.21,0-.21.22-.23s.18,0,.2-.19,0-.21.23-.22a.18.18,0,0,0,.19-.17c0-.25,0-.25.28-.25h.11a.27.27,0,0,1,0,.41h-.09c-.25,0-.26,0-.29.25s-.06.16-.17.17-.23,0-.24.24c0,.05,0,.09-.05.13A.59.59,0,0,1,56.61,65.61Z"/><path class="cls-1" d="M59.87,51.71h-.12c-.23,0-.24,0-.25.24a.16.16,0,0,1-.2.17c-.19,0-.23,0-.23.22s0,.17-.17.17a.87.87,0,0,1-.23,0,.37.37,0,0,1,0-.11c0-.24,0-.25.23-.27s.18-.06.19-.18,0-.21.25-.23a.16.16,0,0,0,.17-.15c0-.26,0-.26.32-.26h.07A.27.27,0,0,1,59.87,51.71Z"/><path class="cls-1" d="M23,58.24l-.12,0c-.26,0-.26,0-.3-.27,0-.09,0-.13-.13-.12h-.14a.13.13,0,0,1-.14-.14.48.48,0,0,1,0-.12c0-.11-.06-.15-.16-.14h-.21a.27.27,0,0,1,0-.42h.11c.24,0,.25,0,.27.24a.18.18,0,0,0,.2.18c.2,0,.2,0,.22.23a.17.17,0,0,0,.15.18c.08,0,.18,0,.24,0s0,.19,0,.29Z"/><path class="cls-1" d="M36.92,57.45h.57c.2,0,.21,0,.22-.21s0-.14,0-.19a.26.26,0,0,1,0,.41.13.13,0,0,0,0,.06c0,.35,0,.34-.37.35h-.32c-.11,0-.16,0-.15-.16A2.09,2.09,0,0,1,36.92,57.45Z"/><path class="cls-1" d="M39.39,37.75h.23c.17,0,.18,0,.19.18s0,.19.17.19.18,0,.19-.18,0-.19.22-.2h.21V38c0,.16,0,.19-.2.2h-.82c-.17,0-.19,0-.19-.21A1.47,1.47,0,0,1,39.39,37.75Z"/><path class="cls-1" d="M39,55.82c.07-.06.15,0,.23,0s.16-.05.17-.17,0-.2.23-.22.17,0,.19-.16,0-.25.29-.25h.12a2.72,2.72,0,0,0,0,.28c0,.1,0,.15-.14.14h-.12c-.09,0-.14,0-.14.13s0,.09,0,.14,0,.12-.13.13h-.28A.25.25,0,0,1,39,55.82Z"/><path class="cls-1" d="M25,60.3H24.9a.53.53,0,0,1-.25,0c-.08-.06,0-.16,0-.24a.13.13,0,0,0-.14-.13h-.11c-.12,0-.16-.07-.16-.18s0-.15,0-.23,0,0,.05,0h.12c.23,0,.24,0,.25.23s0,.15.15.16c.27,0,.27,0,.27.31Z"/><path class="cls-1" d="M14,50.45h-.14c-.24,0-.25,0-.29-.25s-.06-.13-.14-.13h-.14a.12.12,0,0,1-.14-.14v-.26s0,0,.05,0h.1c.25,0,.26,0,.27.25s0,.15.14.15h.14c.1,0,.15.05.14.16S14,50.37,14,50.45Z"/><path class="cls-1" d="M35.3,44.72h-.16c-.24,0-.24,0-.28-.24,0-.08,0-.13-.12-.14s-.2,0-.26-.06,0-.19,0-.29v-.07h.12c.09,0,.2,0,.27,0s0,.16,0,.25,0,.1.11.12.24,0,.29.07a1,1,0,0,1,0,.3A.09.09,0,0,0,35.3,44.72Z"/><path class="cls-1" d="M53.3.42h-.38c0-.4,0-.39.35-.41A5.3,5.3,0,0,1,54,0c.16,0,.16,0,.17.18s0,.14,0,.21H54c-.24,0-.25,0-.28-.25,0-.08,0-.13-.13-.13-.29,0-.29,0-.29.25Z"/><path class="cls-1" d="M29.12,50.07h.12c.25,0,.26,0,.3.25,0,.09.06.13.14.13h.09c.17,0,.18,0,.18.2a1.48,1.48,0,0,1,0,.21s0,0-.05,0h-.05c-.1,0-.21,0-.29,0s0-.17,0-.26a.12.12,0,0,0-.13-.12.88.88,0,0,1-.28,0C29,50.32,29,50.19,29.12,50.07Z"/><path class="cls-1" d="M52.92,52.92a5.34,5.34,0,0,0,.8,0h.05a.43.43,0,0,0,0,.27c0,.12,0,.17-.17.16h-.5a.12.12,0,0,1-.14-.14A2.62,2.62,0,0,0,52.92,52.92Z"/><path class="cls-1" d="M55.76,55.4h-.11c-.2,0-.26,0-.26.23s0,.17-.18.18H55a0,0,0,0,1-.06,0,.35.35,0,0,0,.06-.24c0-.12,0-.17.16-.18s.23,0,.26-.23,0-.17.2-.18h.18A.27.27,0,0,1,55.76,55.4Z"/><path class="cls-1" d="M24.58,71h.14c.25,0,.26,0,.29.26a.15.15,0,0,0,.15.14h.1c.16,0,.17,0,.17.2a1.2,1.2,0,0,1,0,.19h-.14c-.25,0-.25,0-.28-.25,0-.08,0-.13-.11-.14s-.22,0-.28-.06,0-.2,0-.3Z"/><path class="cls-1" d="M30.76,51.66a.57.57,0,0,0,.22,0c.18,0,.18,0,.2.18V52a.12.12,0,0,0,.12.14c.09,0,.2,0,.26.06s0,.19,0,.29v0h-.11c-.09,0-.2,0-.27,0s0-.16,0-.24,0-.12-.11-.12H30.9c-.1,0-.14,0-.14-.15a2.09,2.09,0,0,0,0-.25,0,0,0,0,1,0,0A0,0,0,0,1,30.76,51.66Z"/><path class="cls-1" d="M34.44,36.92h.41v.28c0,.08,0,.13-.12.13l-.55,0c-.1,0-.14-.05-.14-.15s0-.18,0-.27A.75.75,0,0,0,34.44,36.92Z"/><path class="cls-1" d="M31.59,52.51h.09c.28,0,.28,0,.32.27,0,.09,0,.13.15.14s.24,0,.25.26a.42.42,0,0,0,0,.16,0,0,0,0,1,0,0h-.07c-.09,0-.19,0-.27,0s0-.17,0-.26-.05-.12-.14-.13c-.27,0-.27,0-.27-.3Z"/><path class="cls-1" d="M14,61.55h.11c.27,0,.27,0,.3.25,0,.08,0,.13.12.14s.21,0,.27.07,0,.19,0,.28a.17.17,0,0,0,0,.07s0,0-.05,0h-.1c-.25,0-.26,0-.28-.25s0-.16-.15-.16H14.1c-.11,0-.15,0-.15-.16A1.85,1.85,0,0,1,14,61.55Z"/><path class="cls-1" d="M43.46,77.52v-.1c0-.25,0-.26.26-.29.09,0,.15,0,.16-.14s0-.18,0-.24.18,0,.27,0h.09a.34.34,0,0,1,0,.1c0,.28,0,.29-.27.31-.09,0-.15,0-.14.14s0,.08,0,.12,0,.14-.14.14h-.23S43.47,77.54,43.46,77.52Z"/><path class="cls-1" d="M22.17,68.93h.18c.19,0,.19,0,.21.2s0,.18.19.19.23,0,.22.25a.86.86,0,0,1,0,.16h-.11c-.26,0-.26,0-.29-.25,0-.08,0-.13-.12-.14s-.2,0-.26-.07a.61.61,0,0,1,0-.3A.06.06,0,0,1,22.17,68.93Z"/><path class="cls-1" d="M26.23,30h.42v.09c0,.28,0,.29.28.31s.15.05.14.16v.23H27c-.24,0-.25,0-.29-.25a.15.15,0,0,0-.14-.13h-.07c-.18,0-.18,0-.19-.18Z"/><path class="cls-1" d="M50.81,71a.4.4,0,0,0,0-.26q0-.17.15-.15h.12c.1,0,.14,0,.14-.14s0-.07,0-.11,0-.16.15-.15h.23a0,0,0,0,1,.06,0,.4.4,0,0,0,0,.24c0,.12,0,.18-.16.17h-.09c-.11,0-.16,0-.17.15v.11c0,.11-.06.15-.16.15h-.23S50.83,71,50.81,71Z"/><path class="cls-1" d="M58.66,64s0-.09,0-.14c0-.24,0-.25.23-.27s.17,0,.17-.16.09-.23.27-.23h.14v.11c0,.21,0,.3-.25.28-.1,0-.15,0-.16.13s0,.18,0,.24-.18,0-.27,0Z"/><path class="cls-1" d="M73,16.42h0c-.1,0-.21,0-.3,0s0-.17-.05-.26a.12.12,0,0,0-.14-.12h-.12c-.1,0-.15,0-.16-.15a.43.43,0,0,0,0-.27s0,0,0,0h.12c.25,0,.26,0,.28.25s0,.16.15.16h.09c.16,0,.16,0,.17.18Z"/><path class="cls-1" d="M29.12,50.07v.38H29c-.08,0-.18,0-.25,0s0-.16-.05-.24a.16.16,0,0,0-.13-.14c-.08,0-.17,0-.22,0s0-.18,0-.27,0,0,0-.07h.13c.2,0,.27,0,.26.23s0,.17.16.17A.33.33,0,0,1,29.12,50.07Z"/><path class="cls-1" d="M43.08,52.5a.28.28,0,0,1,0-.09c0-.26,0-.26.25-.3a.14.14,0,0,0,.14-.14c0-.29,0-.29.34-.27h.07v.07c0,.09,0,.19,0,.27s-.16,0-.24.05a.12.12,0,0,0-.12.14.28.28,0,0,1,0,.09c0,.17,0,.18-.19.18Z"/><path class="cls-1" d="M57.82,3.69H57.7c-.25,0-.26,0-.28-.26,0-.09,0-.14-.14-.13h-.11q-.16,0-.15-.15V2.9h.11c.24,0,.24,0,.27.23a.17.17,0,0,0,.15.18c.08,0,.18,0,.24,0a.51.51,0,0,1,0,.3Z"/><path class="cls-1" d="M32,66.45h-.16c-.21,0-.21,0-.23-.21s0-.2-.18-.2-.23-.06-.23-.25a.66.66,0,0,1,0-.14h.13c.24,0,.25,0,.28.25a.14.14,0,0,0,.14.14c.25,0,.25,0,.25.3A.41.41,0,0,1,32,66.45Z"/><path class="cls-1" d="M45.13,50.45s0-.06,0-.09c0-.27,0-.27.25-.3.09,0,.15,0,.17-.13s0-.18,0-.24.2,0,.3,0h.06v.07c0,.1,0,.21,0,.3s-.18,0-.27,0a.12.12,0,0,0-.11.12c0,.08,0,.18,0,.24s-.19,0-.29,0Z"/><path class="cls-1" d="M60.72,61.93s0-.06,0-.09c0-.21,0-.31.25-.29a.16.16,0,0,0,.17-.13c0-.09,0-.22.08-.26a1.27,1.27,0,0,1,.28,0h0a2.26,2.26,0,0,0,0,.26c0,.11,0,.17-.16.16h-.12a.11.11,0,0,0-.12.12.61.61,0,0,1,0,.14c0,.09,0,.13-.13.12Z"/><path class="cls-1" d="M46.34,63.61a.61.61,0,0,1,0,.14c0,.2,0,.26-.23.25s-.17,0-.18.15,0,.26-.3.26h-.09a.49.49,0,0,1,0-.12c0-.25,0-.26.25-.29.07,0,.13,0,.14-.12s0-.18,0-.24.2,0,.3,0Z"/><path class="cls-1" d="M54.92,55.81H55v.11c0,.26,0,.27-.26.29s-.17,0-.16.16-.06.23-.26.24h-.16c0-.13-.06-.28,0-.37s.24,0,.36-.06,0-.26.1-.36Z"/><path class="cls-1" d="M47.16,48.82a2.53,2.53,0,0,1,0-.28c0-.09,0-.14.13-.14h.14c.09,0,.12,0,.13-.13s0-.17,0-.25A.52.52,0,0,1,48,48v.11c0,.18,0,.27-.23.26s-.18.06-.19.18,0,.23-.26.23Z"/><path class="cls-1" d="M41,36.92v-.1c0-.25,0-.25.26-.29.1,0,.15-.05.16-.15,0-.26,0-.26.29-.26h.1v.14c0,.2,0,.27-.24.26-.11,0-.16,0-.17.17s0,.23-.26.23Z"/><path class="cls-1" d="M16.81,52.92h-.09c-.26,0-.26,0-.3-.26,0-.1-.06-.14-.15-.15h-.12a.13.13,0,0,1-.15-.15v-.23l.14,0c.19,0,.27,0,.26.23s.05.17.17.17h.09c.11,0,.15.05.15.15A2.26,2.26,0,0,0,16.81,52.92Z"/><path class="cls-1" d="M56.61,50.45v-.07c0-.28,0-.28.27-.31a.15.15,0,0,0,.15-.14c0-.08,0-.18,0-.24s.18,0,.27,0h.07s0,.07,0,.11c0,.23,0,.3-.25.29-.09,0-.15,0-.16.13s0,.18-.06.23-.18,0-.27,0Z"/><path class="cls-1" d="M36.9,46h-.2c-.2,0-.2,0-.2-.21a1.34,1.34,0,0,1,0-.2h.24c.12,0,.18,0,.19.16s0,.22.23.22h.37c.17,0,.18,0,.2-.19s0-.12,0-.17a.25.25,0,0,1,0,.4h0A.84.84,0,0,1,36.9,46Z"/><path class="cls-1" d="M2.47,52.08h.16c.25,0,.25,0,.26.27v.14s0,0-.05,0H2.77c-.09,0-.19,0-.27,0s0-.16,0-.24,0-.12-.13-.12H2.19c-.11,0-.15,0-.14-.15s0-.17,0-.26H2.1A1.62,1.62,0,0,0,2.47,52.08Z"/><path class="cls-1" d="M73,52.51c0-.1,0-.19,0-.28a.12.12,0,0,1,.14-.14h.09c.18,0,.18,0,.19-.21a.92.92,0,0,1,0-.16.58.58,0,0,1,.41,0c0,.34,0,.34-.33.39l-.09,0a1.62,1.62,0,0,0-.37.37Z"/><path class="cls-1" d="M.82,50.46l0,.42H.69c-.24,0-.24,0-.27-.24a.14.14,0,0,0-.14-.14c-.09,0-.19,0-.27-.05H.42Z"/><path class="cls-1" d="M30.81,76.72H31c.17,0,.25,0,.23.22s.05.18.17.18c.29,0,.25.06.25.27a.66.66,0,0,1,0,.14h0a1.37,1.37,0,0,0-.38-.38.63.63,0,0,0-.24,0c-.13,0-.17-.06-.17-.18a1.48,1.48,0,0,0,0-.21A0,0,0,0,1,30.81,76.72Z"/><path class="cls-1" d="M46,75.09l.08,0c.09,0,.18,0,.25,0s0-.16,0-.25,0-.12.14-.12h.23s0,0,0,0,.06.28,0,.37-.24,0-.36,0S46.09,75.24,46,75.09Z"/><path class="cls-1" d="M5.31,13.53l-.08,0c-.09,0-.18,0-.25,0s0,.16,0,.24A.12.12,0,0,1,4.8,14H4.53c0-.12-.06-.27,0-.37s.24,0,.36-.05S5.19,13.39,5.31,13.53Z"/><path class="cls-1" d="M27.44,62.35h-.12c-.21,0-.27,0-.25-.23S27,62,26.91,62a.45.45,0,0,1-.23,0c.13-.15.26-.12.39,0h.07c.38,0,.34,0,.35.37v.05S27.46,62.37,27.44,62.35Z"/><path class="cls-1" d="M25.86.42V0a2,2,0,0,1,.8,0c-.11,0-.23,0-.32,0s0,.21-.08.3a.05.05,0,0,0,0,0A.23.23,0,0,1,25.86.42Z"/><path class="cls-1" d="M48,48h-.37c.07-.05.16,0,.24,0a.11.11,0,0,0,.12-.11c0-.08,0-.18,0-.24s.21,0,.32,0h.06c0,.38,0,.38-.36.42Z"/><path class="cls-1" d="M41.45,53.76l.09,0c.08,0,.18,0,.24,0s0-.16,0-.24a.12.12,0,0,1,.13-.13h.28c0,.13.06.28-.05.37s-.24,0-.36.06S41.58,53.91,41.45,53.76Z"/><path class="cls-1" d="M46.34,38.17c0,.38,0,.38-.36.42h0a.24.24,0,0,1-.37,0s0,0,.08,0,.18,0,.25,0,0-.16,0-.24a.12.12,0,0,1,.14-.12Z"/><path class="cls-1" d="M20.54,67.67h.37l.25,0c.11,0,.17,0,.17.16v.25h-.17c-.23,0-.24,0-.25-.24s-.05-.16-.17-.16A.34.34,0,0,1,20.54,67.67Z"/><path class="cls-1" d="M57.39,54.13c-.07.06-.16,0-.24,0a.13.13,0,0,0-.12.12c-.06.27-.06.27-.33.27h-.09c0-.38,0-.38.34-.41H57C57.15,54,57.27,54,57.39,54.13Z"/><path class="cls-1" d="M48,36.5c.13,0,.28,0,.41,0h-.16c-.2,0-.2,0-.22.2s0,.19-.21.2H47.6s0,0,0,0,0,0,0,0,0-.23,0-.32.19,0,.29-.06S48,36.51,48,36.5Z"/><path class="cls-1" d="M53.34,57.45c0,.39,0,.39-.42.42a.2.2,0,0,1-.34,0l.14,0c.18,0,.18,0,.19-.2s0-.19.22-.2h.16S53.33,57.43,53.34,57.45Z"/><path class="cls-1" d="M33.65,68.09h-.19c-.21,0-.22,0-.23-.21s-.06-.18-.18-.18a.45.45,0,0,1-.11,0c.09-.11.19-.09.29,0h.25c.15,0,.16,0,.17.18Z"/><path class="cls-1" d="M34.85,55.39H35c.09,0,.19,0,.27,0s.05.16.05.24.09.12.15.15a.11.11,0,0,1-.15,0l-.26,0c-.11,0-.17,0-.16-.16S34.85,55.47,34.85,55.39Z"/><path class="cls-1" d="M39,44.7h.17c-.1,0-.17.07-.16.19s0,.23-.23.23h-.19c0-.09,0-.18,0-.27s0-.14.13-.14Z"/><path class="cls-1" d="M50.88,59.49c0,.13,0,.28-.05.38s-.24,0-.35.05h0a.1.1,0,0,1-.15,0c.09,0,.15-.08.15-.2s0-.22.25-.22Z"/><path class="cls-1" d="M3.69,53.34h.16c.22,0,.27,0,.26.24,0,.08,0,.15.1.18a.07.07,0,0,1-.11,0H3.86c-.12,0-.17,0-.17-.16Z"/><path class="cls-1" d="M67.67,11.53h0c-.37,0-.37,0-.37-.42h.16c.2,0,.28,0,.26.24a.18.18,0,0,0,.11.18S67.71,11.56,67.67,11.53Z"/><path class="cls-1" d="M27.44,62.35h0c.13,0,.28-.05.38.06s0,.24,0,.36,0,0-.05,0-.25,0-.34,0,0-.2-.05-.31Z"/><path class="cls-1" d="M31.19,41h0c-.12,0-.25,0-.34,0s0-.2-.07-.3a.59.59,0,0,0,0-.08s0,0,.06,0H31c.18,0,.18,0,.19.19A1.69,1.69,0,0,1,31.19,41Z"/><path class="cls-1" d="M46.76,74.67h0c.07-.09,0-.2,0-.29s0-.13.12-.13h.3c0,.09,0,.18,0,.27s0,.14-.13.14Z"/><path class="cls-1" d="M23.38,70.14c.13,0,.3-.06.39,0s0,.25.05.37h-.27c-.12,0-.17,0-.17-.17A2.09,2.09,0,0,0,23.38,70.14Z"/><path class="cls-1" d="M50,71.78c0-.5,0-.4.38-.42h0v.27c0,.1-.05.15-.14.15Z"/><path class="cls-1" d="M27.09.83l0-.41c.49,0,.4,0,.42.42Z"/><path class="cls-1" d="M25.43,71.78h.28a.13.13,0,0,1,.14.14v.28C25.44,72.2,25.44,72.2,25.43,71.78Z"/><path class="cls-1" d="M54.56.84h-.27c-.1,0-.15,0-.15-.14V.42h.27c.09,0,.14,0,.14.13S54.56.75,54.56.84Z"/><path class="cls-1" d="M27.91,1.26h0c-.4,0-.4,0-.4-.42.38,0,.38,0,.41.37C27.9,1.23,27.91,1.24,27.91,1.26Z"/><path class="cls-1" d="M49.59,72.2a.71.71,0,0,0,0-.25c0-.12,0-.18.17-.17H50C50,72.28,50.06,72.17,49.59,72.2Z"/><path class="cls-1" d="M55,1.26h0c-.44,0-.4.06-.4-.42.12,0,.26,0,.36,0s0,.23,0,.34Z"/><path class="cls-1" d="M25.85,72.2c.4,0,.4,0,.42.4v0h0C25.84,72.6,25.84,72.6,25.85,72.2Z"/><path class="cls-1" d="M48.4,73c0-.5,0-.41.43-.43v0c0,.13.05.28-.06.37S48.52,73,48.4,73Z"/><path class="cls-1" d="M17.64,3.31a2.09,2.09,0,0,0,0,.25.12.12,0,0,1-.14.14.53.53,0,0,0-.28,0,.22.22,0,0,1-.37,0,.45.45,0,0,1,.25-.05.12.12,0,0,0,.12-.11c0-.09,0-.19.06-.24s.18,0,.27,0Z"/><path class="cls-1" d="M27.07,73.41h0c.39,0,.39,0,.38.42h-.28a.13.13,0,0,1-.14-.14Z"/><path class="cls-1" d="M27.49,73.83c.13,0,.29-.06.39,0s0,.25.05.37h-.28c-.12,0-.16-.06-.16-.17Z"/><path class="cls-1" d="M28.69,74.66H29c.12,0,.16,0,.16.17v.25c-.13,0-.29,0-.39,0S28.72,74.79,28.69,74.66Z"/><path class="cls-1" d="M31.59,4.53h-.3a.1.1,0,0,1-.11-.11c0-.1,0-.2,0-.3C31.65,4.12,31.58,4.06,31.59,4.53Z"/><path class="cls-1" d="M29.54,75.46h0c.42,0,.37,0,.39.42,0,0,0,0-.05,0h0c-.11,0-.23,0-.32,0s0-.19,0-.29a.14.14,0,0,0-.05-.1S29.52,75.44,29.54,75.46Z"/><path class="cls-1" d="M58.66,4.53c-.12,0-.28,0-.37,0s0-.24,0-.37h.3a.1.1,0,0,1,.11.11C58.66,4.33,58.66,4.43,58.66,4.53Z"/><path class="cls-1" d="M45.49,75.89a1.79,1.79,0,0,1,0-.23c0-.17,0-.18.18-.19h.23a0,0,0,0,1,.06,0,.41.41,0,0,0-.06.24c0,.15,0,.16-.18.17Z"/><path class="cls-1" d="M30.81,76.72h-.06c-.38,0-.38,0-.42-.42a0,0,0,0,1,.06,0h0c.1,0,.23,0,.31,0s0,.19.05.28S30.8,76.68,30.81,76.72Z"/><path class="cls-1" d="M44.29,76.72c0-.48,0-.41.44-.42v0c0,.12.05.29-.06.37S44.42,76.71,44.29,76.72Z"/><path class="cls-1" d="M43.46,77.52h0a.63.63,0,0,0,0,.27c0,.11,0,.15-.15.15h-.26C43.06,77.53,43.06,77.53,43.46,77.52Z"/><path class="cls-1" d="M13.54,7c0,.11,0,.25,0,.34s-.22,0-.33.06a1.3,1.3,0,0,1-.44,0,.37.37,0,0,1,.25,0,.14.14,0,0,0,.13-.11c0-.09,0-.19.05-.24s.18,0,.27,0Z"/><path class="cls-1" d="M42.65,78.35c0-.49,0-.4.43-.42v.3a.11.11,0,0,1-.12.12Z"/><path class="cls-1" d="M32.79,78.35h.27c.12,0,.17,0,.17.16v.26c-.13,0-.3,0-.39,0S32.82,78.48,32.79,78.35Z"/><path class="cls-1" d="M42.23,78.77v-.09c0-.34,0-.33.36-.33h.07c0,.4,0,.4-.4.42Z"/><path class="cls-1" d="M8.64,10.27a2.44,2.44,0,0,0,0,.27c0,.1,0,.15-.14.15H8.21v-.24c0-.17,0-.17.19-.18Z"/><path class="cls-1" d="M8.21,10.68V11a.12.12,0,0,1-.14.14H7.79c0-.1,0-.2,0-.3a.1.1,0,0,1,.11-.11Z"/><path class="cls-1" d="M67.25,11.1c-.39,0-.39,0-.42-.37,0,0,0,0,0-.05h0C67.26,10.71,67.25,10.6,67.25,11.1Z"/><path class="cls-1" d="M7.38,11.53H7a.19.19,0,0,1,.08,0c.25,0,.26,0,.29-.28,0-.09,0-.12.14-.12h.27s0,.05,0,.07c0,.25,0,.34-.29.33Z"/><path class="cls-1" d="M34,79.57h0c.4,0,.4,0,.38.42-.13,0-.27,0-.36,0s0-.23-.06-.35S34,79.58,34,79.57Z"/><path class="cls-1" d="M68.51,12.32h-.05c-.11,0-.24,0-.33,0s0-.2-.06-.3a.2.2,0,0,0,0-.08s0,0,.06,0C68.49,11.92,68.49,11.92,68.51,12.32Z"/><path class="cls-1" d="M34.44,80h.07c.38,0,.36-.06.36.37v0h-.3c-.08,0-.12,0-.12-.11S34.45,80.09,34.44,80Z"/><path class="cls-1" d="M5.74,12.74v.39a2,2,0,0,1-.42,0v0C5.34,12.72,5.26,12.74,5.74,12.74Z"/><path class="cls-1" d="M69.3,13.16c-.44,0-.39.07-.42-.42,0,0,0,0,.05,0h0c.1,0,.23-.05.31,0s0,.19,0,.29a.22.22,0,0,0,0,.11S69.32,13.18,69.3,13.16Z"/><path class="cls-1" d="M40.6,80v.41h-.41C40.18,79.93,40.16,80,40.6,80Z"/><path class="cls-1" d="M70.14,14c-.49,0-.4,0-.42-.42h0C70.15,13.55,70.15,13.55,70.14,14Z"/><path class="cls-1" d="M4.53,14v0c0,.4,0,.4-.42.39,0-.4,0-.4.4-.42Z"/><path class="cls-1" d="M70.59,14.38h-.28c-.12,0-.17,0-.17-.16a2.26,2.26,0,0,0,0-.26c.13,0,.29-.06.39.05S70.54,14.25,70.59,14.38Z"/><path class="cls-1" d="M4.11,14.37v.28c0,.1-.05.14-.15.14H3.69v-.3c0-.07,0-.11.12-.11Z"/><path class="cls-1" d="M71.36,14.79c-.13,0-.3.06-.39,0s0-.26,0-.38a2.43,2.43,0,0,0,.27,0,.15.15,0,0,1,.17.17Z"/><path class="cls-1" d="M3.69,14.79c0,.4,0,.4-.38.42H3.26v0C3.3,14.78,3.3,14.78,3.69,14.79Z"/><path class="cls-1" d="M71.78,15.21h0c-.41,0-.41,0-.4-.42C71.86,14.79,71.76,14.77,71.78,15.21Z"/><path class="cls-1" d="M73.42,16.84h-.28A.12.12,0,0,1,73,16.7c0-.09,0-.18,0-.28C73.41,16.43,73.41,16.43,73.42,16.84Z"/><path class="cls-1" d="M44.71,33.65a2.61,2.61,0,0,0,0-.28c0-.1,0-.13.15-.13h.27c0,.09,0,.18,0,.27s0,.14-.14.14Z"/><path class="cls-1" d="M30.34,33.64a1.29,1.29,0,0,0,.28,0,.12.12,0,0,1,.14.14,2.44,2.44,0,0,0,0,.27h-.26c-.11,0-.16-.05-.16-.16S30.34,33.73,30.34,33.64Z"/><path class="cls-1" d="M44.29,34.06c0-.09,0-.19,0-.29a.1.1,0,0,1,.11-.11h.3a2.09,2.09,0,0,0,0,.25c0,.12-.06.17-.17.16Z"/><path class="cls-1" d="M27.07,37v.39h-.26c-.11,0-.16,0-.16-.16v-.26C26.79,36.94,26.93,36.88,27.07,37Z"/><path class="cls-1" d="M40.61,37.35v-.3a.11.11,0,0,1,.12-.12H41c0,.12,0,.28-.05.37S40.73,37.32,40.61,37.35Z"/><path class="cls-1" d="M47.6,36.91v0c0,.41,0,.41-.42.39,0-.39,0-.39.37-.43Z"/><path class="cls-1" d="M47.19,37.33c0,.11,0,.21,0,.31s0,.11-.12.11h-.3v-.2c0-.2,0-.2.22-.21Z"/><path class="cls-1" d="M46.76,37.75V38c0,.1,0,.14-.14.14h-.28c0-.09,0-.18,0-.27s0-.15.14-.15Z"/><path class="cls-1" d="M29.54,39.39c-.5,0-.41,0-.42-.42h.27c.1,0,.14,0,.15.13Z"/><path class="cls-1" d="M44.7,39.81l0-.41.41,0a2.26,2.26,0,0,0,0,.26c0,.12-.06.17-.17.16Z"/><path class="cls-1" d="M43.08,41v0c0,.42.09.4-.42.39v-.27A.12.12,0,0,1,42.8,41Z"/><path class="cls-1" d="M32.39,41.86c-.12,0-.27,0-.36,0s0-.23-.07-.35v0h.3a.13.13,0,0,1,.14.14Z"/><path class="cls-1" d="M42.66,41.44v.28c0,.1,0,.14-.15.14h-.27v-.27c0-.1,0-.15.14-.15A2.62,2.62,0,0,0,42.66,41.44Z"/><path class="cls-1" d="M32.81,42.28h0c-.44,0-.4.06-.4-.42C32.89,41.86,32.79,41.83,32.81,42.28Z"/><path class="cls-1" d="M42.24,41.86c0,.4,0,.4-.39.42,0,0,0,0-.05,0a.63.63,0,0,0,0-.27c0-.11.05-.15.16-.14Z"/><path class="cls-1" d="M33.59,43.08h-.06c-.28,0-.29,0-.31-.27a.25.25,0,0,0,0-.15s0,0,.06,0h.07c.35,0,.34,0,.34.37v0S33.62,43.1,33.59,43.08Z"/><path class="cls-1" d="M41.44,42.65v.05c0,.38,0,.38-.42.37,0-.39,0-.39.38-.42Z"/><path class="cls-1" d="M40.6,43.5l0-.42H41v.3q0,.12-.12.12Z"/><path class="cls-1" d="M34.45,43.91H34.2c-.12,0-.17,0-.17-.17a2.09,2.09,0,0,0,0-.25h.07c.39,0,.35-.07.36.38Z"/><path class="cls-1" d="M36.5,45.55c-.14,0-.3.06-.39,0s0-.25,0-.37h.27c.12,0,.17,0,.17.17A2.08,2.08,0,0,0,36.5,45.55Z"/><path class="cls-1" d="M38.55,45.13c0,.41,0,.41-.42.42,0-.09,0-.18,0-.28a.12.12,0,0,1,.14-.14Z"/><path class="cls-1" d="M61.51,46c0-.47,0-.41.42-.42,0,.12,0,.26,0,.36s-.23,0-.34.05Z"/><path class="cls-1" d="M60.29,47.18c0-.13,0-.28.05-.38s.23,0,.35,0h0a2.53,2.53,0,0,0,0,.28c0,.09-.05.14-.14.14Z"/><path class="cls-1" d="M27.07,48.4h0c.42,0,.4-.09.4.42h-.28c-.1,0-.14,0-.14-.15Z"/><path class="cls-1" d="M27.49,48.82h.27c.1,0,.14,0,.14.14s0,.18,0,.28,0,0,0,0C27.45,49.21,27.49,49.31,27.49,48.82Z"/><path class="cls-1" d="M27.91,49.23c.38,0,.38,0,.41.36,0,0,0,0,0,.06h0C27.9,49.64,27.9,49.64,27.91,49.23Z"/><path class="cls-1" d="M62,49.65a1.48,1.48,0,0,0,0,.21c0,.19,0,.2-.22.21h-.21c0-.13,0-.3.06-.39S61.82,49.66,62,49.65Z"/><path class="cls-1" d="M44.71,50.87c0-.51,0-.4.4-.42h0v0C45.11,50.88,45.11,50.88,44.71,50.87Z"/><path class="cls-1" d="M56.19,50.87a2.09,2.09,0,0,0,0-.25c0-.12.06-.16.17-.16h.25c0,.09,0,.18,0,.27s0,.15-.14.15Z"/><path class="cls-1" d="M15.17,51.29c-.12,0-.27,0-.37,0s0-.22-.05-.33a.14.14,0,0,1,0-.06H15c.09,0,.14.05.14.14Z"/><path class="cls-1" d="M44.29,51.29V51a.11.11,0,0,1,.12-.12h.3v.3a.11.11,0,0,1-.12.11Z"/><path class="cls-1" d="M60.72,50.86a2.72,2.72,0,0,0,0,.28c0,.1-.05.15-.14.15h-.28C60.28,50.88,60.28,50.88,60.72,50.86Z"/><path class="cls-1" d="M15.59,51.71c-.47,0-.42.07-.42-.42h.3c.07,0,.11,0,.11.12S15.59,51.61,15.59,51.71Z"/><path class="cls-1" d="M43.87,51.71v-.05c0-.38,0-.38.42-.37,0,.39,0,.39-.38.42Z"/><path class="cls-1" d="M59.87,51.71a3,3,0,0,0,0-.42,2.77,2.77,0,0,1,.41,0c0,.09,0,.17,0,.26s0,.17-.17.16Z"/><path class="cls-1" d="M16,52.13h0c-.39,0-.39,0-.38-.41.4,0,.4,0,.42.37Z"/><path class="cls-1" d="M42.66,52.92a2.72,2.72,0,0,0,0-.28c0-.1.05-.14.15-.13h.28c0,.09,0,.19,0,.28a.12.12,0,0,1-.14.14Z"/><path class="cls-1" d="M58.67,52.5v.09c0,.35.06.34-.36.34h-.07v-.2c0-.2,0-.2.22-.21Z"/><path class="cls-1" d="M72.2,52.92v-.27a.12.12,0,0,1,.14-.14h.3a.63.63,0,0,0,0,.27c0,.12,0,.17-.16.16Z"/><path class="cls-1" d="M3.27,52.92h0c.43,0,.4-.09.4.42a2.09,2.09,0,0,0-.25,0c-.12,0-.16-.06-.16-.17S3.27,53,3.27,52.92Z"/><path class="cls-1" d="M17.23,53a1.21,1.21,0,0,0,0,.38H17c-.12,0-.16-.06-.16-.17a2.09,2.09,0,0,0,0-.25C16.94,52.94,17.09,52.88,17.23,53Z"/><path class="cls-1" d="M42.23,53.34V53a.11.11,0,0,1,.12-.12h.3c0,.09,0,.19,0,.28s0,.14-.14.13Z"/><path class="cls-1" d="M58.25,52.92c0,.5,0,.41-.43.42,0-.1,0-.2,0-.3s0-.11.12-.11Z"/><path class="cls-1" d="M71.78,53.34v-.25c0-.12,0-.17.17-.17h.25v.28a.12.12,0,0,1-.14.14Z"/><path class="cls-1" d="M32.39,53.34h.12c.28,0,.28,0,.31.28a.19.19,0,0,0,0,.14s0,0-.06,0h-.07c-.35,0-.34,0-.35-.36Z"/><path class="cls-1" d="M57.83,53.34c0,.4,0,.4-.38.42H57.4v0C57.44,53.33,57.44,53.33,57.83,53.34Z"/><path class="cls-1" d="M71.35,53.76c0-.1,0-.2,0-.3a.12.12,0,0,1,.12-.12h.3c0,.4,0,.4-.38.42Z"/><path class="cls-1" d="M5,54.55H4.8c-.25,0-.25,0-.28-.26a.23.23,0,0,0,0-.15,0,0,0,0,1,.06,0C4.93,54.15,4.93,54.15,5,54.55Z"/><path class="cls-1" d="M33.23,54.14h.28a.13.13,0,0,1,.14.14c0,.1,0,.19,0,.28h-.27c-.12,0-.16,0-.16-.16Z"/><path class="cls-1" d="M19.28,55H19a.12.12,0,0,1-.14-.14c0-.1,0-.19,0-.28h0C19.31,54.58,19.27,54.49,19.28,55Z"/><path class="cls-1" d="M56.61,54.55c0,.1,0,.2,0,.3s0,.12-.11.12h-.3C56.18,54.57,56.18,54.57,56.61,54.55Z"/><path class="cls-1" d="M70.14,55c0-.41,0-.41.42-.42v0C70.54,55,70.54,55,70.14,55Z"/><path class="cls-1" d="M19.7,55.4h0c-.43,0-.4.08-.4-.42h.3c.08,0,.11,0,.12.12Z"/><path class="cls-1" d="M55.76,55.4a1.48,1.48,0,0,0,0-.42h.41v.26c0,.12-.06.16-.17.16Z"/><path class="cls-1" d="M69.72,55.39c0-.47-.07-.41.42-.42,0,.1,0,.2,0,.3a.1.1,0,0,1-.11.11Z"/><path class="cls-1" d="M20.12,55.81h-.05c-.39,0-.39,0-.38-.42.4,0,.4,0,.43.38Z"/><path class="cls-1" d="M7,56.19H7c.4,0,.4,0,.38.42-.39,0-.39,0-.42-.38C7,56.22,7,56.2,7,56.19Z"/><path class="cls-1" d="M20.91,56.61c-.39,0-.39,0-.42-.38v0h.07C20.93,56.21,20.93,56.21,20.91,56.61Z"/><path class="cls-1" d="M38.55,56.61c0-.5,0-.4.4-.42h0v.3c0,.08,0,.12-.12.12Z"/><path class="cls-1" d="M68.53,56.19a1.12,1.12,0,0,0,0,.41,1.41,1.41,0,0,1-.41,0c0-.5,0-.4.39-.42Z"/><path class="cls-1" d="M7.37,56.61c.47,0,.42-.07.43.42H7.5c-.08,0-.11,0-.12-.11S7.38,56.71,7.37,56.61Z"/><path class="cls-1" d="M21.33,57H21a.1.1,0,0,1-.11-.11c0-.1,0-.2,0-.3H21c.39,0,.35-.07.36.37C21.34,57,21.33,57,21.33,57Z"/><path class="cls-1" d="M36.08,56.61h0c.41,0,.41,0,.4.42-.4,0-.4,0-.42-.4Z"/><path class="cls-1" d="M38.13,57c0-.1,0-.2,0-.3s0-.12.11-.12h.3v.28c0,.1,0,.13-.14.13Z"/><path class="cls-1" d="M54.14,56.61c0,.5,0,.41-.42.42,0-.09,0-.18,0-.27s0-.15.14-.14Z"/><path class="cls-1" d="M67.67,57v-.25c0-.12,0-.17.17-.17h.25C68.08,57.09,68.16,57,67.67,57Z"/><path class="cls-1" d="M7.79,57c.52,0,.41,0,.43.42h0C7.77,57.42,7.8,57.53,7.79,57Z"/><path class="cls-1" d="M21.74,57a1.48,1.48,0,0,0,0,.42H21.6c-.27,0-.27,0-.27-.29V57A2.81,2.81,0,0,1,21.74,57Z"/><path class="cls-1" d="M36.5,57c.46,0,.42-.06.42.43-.41,0-.41,0-.42-.4Z"/><path class="cls-1" d="M67.25,57.45v0c0-.42-.08-.41.42-.4,0,.4,0,.4-.37.42Z"/><path class="cls-1" d="M66.47,57.87c.06-.06.14,0,.22,0s.14,0,.15-.14,0-.25.3-.25h.11s0,0,0,.07c0,.31,0,.33-.28.32a.7.7,0,0,0-.14,0C66.72,58,66.59,58,66.47,57.87Z"/><path class="cls-1" d="M23.38,58.66c-.41,0-.41,0-.42-.42h0C23.41,58.27,23.38,58.17,23.38,58.66Z"/><path class="cls-1" d="M52.51,58.24c0,.1,0,.2,0,.3a.11.11,0,0,1-.12.12h-.3a2.09,2.09,0,0,0,0-.25c0-.13.06-.17.17-.16Z"/><path class="cls-1" d="M66,58.66c0-.41,0-.41.39-.42h0v0C66.44,58.67,66.44,58.67,66,58.66Z"/><path class="cls-1" d="M23.8,59.08h0c-.44,0-.4.09-.4-.42h.3c.07,0,.11,0,.11.12A2.71,2.71,0,0,1,23.8,59.08Z"/><path class="cls-1" d="M52.08,58.66V59a.11.11,0,0,1-.12.11h-.32a.77.77,0,0,0,0-.15c0-.32.06-.27.29-.27Z"/><path class="cls-1" d="M65.21,58.65l.42,0a.26.26,0,0,1,0,.41,1.77,1.77,0,0,1-.23,0c-.17,0-.17,0-.17-.18Z"/><path class="cls-1" d="M65.61,59.08l0-.41H66v0C66,59.1,66,59.1,65.61,59.08Z"/><path class="cls-1" d="M12.69,60.3h0c.4,0,.42-.09.4.41-.4,0-.4,0-.42-.37C12.7,60.33,12.69,60.31,12.69,60.3Z"/><path class="cls-1" d="M25.44,60.71c-.49,0-.41,0-.43-.41h0C25.44,60.31,25.44,60.31,25.44,60.71Z"/><path class="cls-1" d="M62.72,60.29h.05v0c0,.4,0,.4-.42.39a0,0,0,0,1,0,0C62.33,60.21,62.33,60.3,62.72,60.29Z"/><path class="cls-1" d="M13.11,60.71c.48,0,.42-.05.43.42h-.28a.12.12,0,0,1-.14-.14A2.72,2.72,0,0,0,13.11,60.71Z"/><path class="cls-1" d="M25.88,61.14h-.3a.13.13,0,0,1-.14-.14v-.28c.12,0,.27-.05.37,0s0,.24.06.35Z"/><path class="cls-1" d="M49.66,60.72a2,2,0,0,1,0,.23c0,.17,0,.18-.18.18h-.23c0-.4,0-.4.38-.42C49.63,60.7,49.65,60.7,49.66,60.72Z"/><path class="cls-1" d="M61.91,61.14s0,0,0-.07c0-.36,0-.36.38-.36h.05C62.35,61.21,62.37,61.11,61.91,61.14Z"/><path class="cls-1" d="M13.54,61.13h.27a.12.12,0,0,1,.14.14c0,.1,0,.19,0,.28h0C13.54,61.53,13.54,61.53,13.54,61.13Z"/><path class="cls-1" d="M48.45,61.93a.34.34,0,0,0-.05.22c0,.19,0,.19-.22.2H48a1.47,1.47,0,0,1,0-.21c0-.19,0-.19.21-.2h.21A0,0,0,0,1,48.45,61.93Z"/><path class="cls-1" d="M60.3,62.35c0-.5,0-.4.4-.42h0v0C60.7,62.37,60.7,62.37,60.3,62.35Z"/><path class="cls-1" d="M59.88,62.77v-.25c0-.12,0-.17.17-.17h.25c0,.1,0,.2,0,.3s0,.11-.11.12Z"/><path class="cls-1" d="M59.46,63.19s0,0,0,0c0-.41,0-.41.42-.4,0,.4,0,.4-.4.42Z"/><path class="cls-1" d="M28.7,63.61c-.4,0-.4,0-.42-.42,0,0,0,0,0,0h.07c.29,0,.29,0,.31.28a.19.19,0,0,0,.05.14S28.72,63.63,28.7,63.61Z"/><path class="cls-1" d="M46.78,63.18v.23c0,.18,0,.18-.2.19h-.23a1.48,1.48,0,0,1,0-.21c0-.2,0-.2.22-.21Z"/><path class="cls-1" d="M16.78,64h.3a.12.12,0,0,1,.14.14v.27h0c-.11,0-.24,0-.34,0s0-.22-.06-.32A.29.29,0,0,0,16.78,64Z"/><path class="cls-1" d="M29.54,64.4c-.49,0-.41,0-.42-.42h0C29.57,64,29.54,63.9,29.54,64.4Z"/><path class="cls-1" d="M58.24,64.4c0-.41,0-.41.42-.42v0C58.65,64.4,58.65,64.4,58.24,64.4Z"/><path class="cls-1" d="M17.22,64.4c.47,0,.42-.06.42.42h-.3c-.07,0-.11,0-.11-.12S17.22,64.5,17.22,64.4Z"/><path class="cls-1" d="M30,64.82h-.29c-.1,0-.15,0-.15-.14V64.4c.12,0,.27,0,.37,0s0,.23.06.35S30,64.81,30,64.82Z"/><path class="cls-1" d="M45.55,64.4v0c0,.41,0,.41-.42.4,0-.4,0-.4.37-.42Z"/><path class="cls-1" d="M57.82,64.82c0-.14,0-.28,0-.41h.4v.28a.13.13,0,0,1-.14.14Z"/><path class="cls-1" d="M17.64,64.82h.3a.11.11,0,0,1,.12.12c0,.1,0,.2,0,.3H18C17.64,65.22,17.64,65.22,17.64,64.82Z"/><path class="cls-1" d="M45.13,64.82v.28c0,.09-.05.14-.15.14H44.7C44.71,64.82,44.71,64.82,45.13,64.82Z"/><path class="cls-1" d="M18.06,65.24h.09c.28,0,.28,0,.32.26,0,.09.05.13.13.13s.17,0,.25,0c-.13.14-.25.11-.38,0a.35.35,0,0,0-.22,0c-.18,0-.19,0-.19-.21Z"/><path class="cls-1" d="M31.18,65.66h-.27c-.12,0-.16-.05-.16-.17a2.18,2.18,0,0,0,0-.25C31.22,65.25,31.16,65.18,31.18,65.66Z"/><path class="cls-1" d="M56.61,65.61H57l-.06,0c-.09,0-.19,0-.26,0s0,.17,0,.26a.11.11,0,0,1-.12.1h-.3v-.11c0-.26,0-.26.26-.28Z"/><path class="cls-1" d="M18.86,66h.27c.12,0,.16,0,.15.16v.25c-.4,0-.4,0-.42-.39Z"/><path class="cls-1" d="M55.77,66.46V66.2c0-.12.06-.16.17-.16h.26C56.19,66.46,56.19,66.46,55.77,66.46Z"/><path class="cls-1" d="M19.68,66.46l0,.41h-.28a.13.13,0,0,1-.14-.14v-.28Z"/><path class="cls-1" d="M32.39,66.87c-.4,0-.4,0-.42-.39v0H32C32.4,66.47,32.4,66.47,32.39,66.87Z"/><path class="cls-1" d="M55.35,66.88v0c0-.41-.08-.4.42-.39,0,.4,0,.4-.37.42Z"/><path class="cls-1" d="M32.82,67.29h-.28a.13.13,0,0,1-.15-.14v-.28C32.81,66.87,32.81,66.87,32.82,67.29Z"/><path class="cls-1" d="M42.65,66.87v.39a1.43,1.43,0,0,1-.41,0v0C42.25,66.85,42.18,66.88,42.65,66.87Z"/><path class="cls-1" d="M42.23,67.67l-.07,0c-.09,0-.19,0-.26,0s0,.18-.06.26a.11.11,0,0,1-.12.11h-.28V68c0-.26,0-.26.25-.28a.29.29,0,0,0,.16,0A.24.24,0,0,1,42.23,67.67Z"/><path class="cls-1" d="M54.14,68.09c0-.4,0-.4.37-.42h.05v0C54.54,68.09,54.54,68.09,54.14,68.09Z"/><path class="cls-1" d="M21.32,68.09c.48,0,.42,0,.43.42C21.33,68.51,21.33,68.51,21.32,68.09Z"/><path class="cls-1" d="M41.45,68.09v0c0,.4,0,.4-.42.4,0-.4,0-.4.4-.42Z"/><path class="cls-1" d="M53.7,68.51s0-.06,0-.09c0-.36,0-.33.36-.33h.07C54.13,68.58,54.17,68.49,53.7,68.51Z"/><path class="cls-1" d="M21.75,68.51H22c.12,0,.17,0,.16.17s0,.16,0,.25h-.05C21.74,68.91,21.74,68.91,21.75,68.51Z"/><path class="cls-1" d="M41,68.51v.3c0,.07,0,.11-.12.11h-.3c0-.1,0-.2,0-.3s0-.12.11-.12Z"/><path class="cls-1" d="M34.86,69.31v-.38h.26c.11,0,.16.06.16.17v.27C35.15,69.31,35,69.38,34.86,69.31Z"/><path class="cls-1" d="M40.18,69.35v0c0-.38,0-.38.42-.37,0,.39,0,.39-.37.42Z"/><path class="cls-1" d="M52.45,69.34a.39.39,0,0,0,.06-.24c0-.15,0-.16.18-.17h.25a2.64,2.64,0,0,0,0,.28.12.12,0,0,1-.14.14h-.27S52.46,69.36,52.45,69.34Z"/><path class="cls-1" d="M23,69.72H23c.39,0,.39,0,.37.42h-.25c-.12,0-.16,0-.16-.17S23,69.81,23,69.72Z"/><path class="cls-1" d="M30.76,51.66v.05h-.24c-.12,0-.17-.05-.17-.17a2.08,2.08,0,0,0,0-.25h.07C30.77,51.3,30.76,51.23,30.76,51.66Z"/><path class="cls-1" d="M2.47,16v-.38c.14-.07.28,0,.42-.05v0C2.86,16,2.94,16,2.47,16Z"/><path class="cls-1" d="M51.72,70.15h-.06c0-.43,0-.41.43-.41v.06C52.08,70.15,52.08,70.15,51.72,70.15Z"/><path class="cls-1" d="M41,54.56c0-.09,0-.17,0-.26s.05-.16.16-.16h.23s0,0,.06,0,0,.16,0,.25,0,.16-.15.15Z"/><path class="cls-1" d="M49.23,61.13v.25a.15.15,0,0,1-.17.17h-.25C48.82,61.13,48.82,61.13,49.23,61.13Z"/><path class="cls-1" d="M6.16,55.77v-.38h.23c.16,0,.17,0,.18.19s0,.15,0,.23S6.29,55.84,6.16,55.77Z"/><path class="cls-1" d="M48,62.35c0,.5,0,.4-.44.42a.83.83,0,0,0,0-.27q0-.16.15-.15Z"/><path class="cls-1" d="M31.59,77.52h.26c.12,0,.16,0,.16.17s0,.17,0,.25h-.27c-.12,0-.17-.05-.16-.16S31.59,77.6,31.59,77.52Z"/><path class="cls-1" d="M33.64,79.15l.23,0c.12,0,.17.06.16.17v.23h-.16c-.17,0-.23,0-.23-.22s0-.16-.17-.18a.34.34,0,0,1-.22,0A.25.25,0,0,1,33.64,79.15Z"/><path class="cls-1" d="M73.83,17.27l-.25,0a.16.16,0,0,1-.17-.18v-.23C73.83,16.82,73.83,16.82,73.83,17.27Z"/><path class="cls-1" d="M30,39.81h0c-.41,0-.41,0-.4-.42.38,0,.38,0,.41.38C30,39.78,30,39.79,30,39.81Z"/><path class="cls-1" d="M29.91,50.87H30c.39,0,.39,0,.38.42-.38,0-.38,0-.41-.34A.25.25,0,0,1,29.91,50.87Z"/><path class="cls-1" d="M43.86,34.48a.83.83,0,0,0,0-.27c0-.11,0-.15.15-.15h.25v0c0,.31.07.4-.36.38Z"/><path class="cls-1" d="M49.66,60.72h0a.36.36,0,0,0,0-.11c0-.3,0-.3.33-.3H50a0,0,0,0,1,.06,0,.34.34,0,0,0-.05.22c0,.19,0,.2-.22.2Z"/><path class="cls-1" d="M28.33,63.19h0c-.11,0-.24,0-.33,0s0-.22-.07-.32a.25.25,0,0,1,0-.07h.05c.11,0,.24,0,.34,0s0,.22.06.32S28.33,63.16,28.33,63.19Z"/><path class="cls-1" d="M61.93,7.41l-.27,0c-.1,0-.14,0-.14-.14s0-.17,0-.25C62,7,61.91,7,61.93,7.41Z"/><path class="cls-1" d="M30.39,76.3h-.06c-.11,0-.24,0-.33,0s0-.21-.06-.32l0-.06H30c.11,0,.24,0,.34,0s0,.22.06.33Z"/><path class="cls-1" d="M39.81,7.79a.86.86,0,0,0-.05.23c0,.18,0,.19-.21.2h-.16c0-.13-.07-.29,0-.38S39.68,7.82,39.81,7.79Z"/><path class="cls-1" d="M68.93,12.74h-.27c-.12,0-.16-.06-.16-.17v-.25h.07c.3,0,.3,0,.33.31Z"/><path class="cls-1" d="M26.27,72.62h.12c.19,0,.28,0,.27.24a.27.27,0,0,0,.05.18,0,0,0,0,1-.06,0l-.18,0c-.2,0-.21,0-.21-.22C26.26,72.74,26.27,72.68,26.27,72.62Z"/><path class="cls-1" d="M45.55,39a.86.86,0,0,0,0,.28.13.13,0,0,1-.15.15h-.23C45.1,39,45.1,39,45.55,39Z"/><path class="cls-1" d="M18.44,50.45h0c.12,0,.27-.05.35.06s0,.23,0,.36-.24,0-.33,0,0-.2-.07-.31S18.44,50.48,18.44,50.45Z"/><path class="cls-1" d="M13.08,49.49c-.16.13-.42.12-.31-.17l0-.06C13,49.25,13.07,49.31,13.08,49.49Z"/><path class="cls-1" d="M20.91.43l0,.4h-.4a.63.63,0,0,0,0-.27.12.12,0,0,1,.14-.14Z"/><path class="cls-1" d="M48,.42l0,.41h-.4a.77.77,0,0,0,0-.27c0-.1,0-.15.15-.14Z"/><path class="cls-1" d="M2.84,52.5h.05c.41,0,.41,0,.38.42-.11,0-.24,0-.33,0s0-.2-.07-.31Z"/><path class="cls-1" d="M24.23,59.5h-.05c-.41,0-.41,0-.38-.42h0c.32,0,.32,0,.36.31A.61.61,0,0,0,24.23,59.5Z"/><path class="cls-1" d="M54.91,67.29A.42.42,0,0,0,55,67c0-.11.06-.16.16-.15h.23c0,.38,0,.38-.38.41A0,0,0,0,1,54.91,67.29Z"/><path class="cls-1" d="M14.75,62.35h.18c.25,0,.25,0,.25.26a.92.92,0,0,1,0,.16h-.09c-.22,0-.31,0-.3-.29A.79.79,0,0,0,14.75,62.35Z"/><path class="cls-1" d="M14.37,46.76c.12,0,.28,0,.36.05s0,.24,0,.37h-.09c-.25,0-.32,0-.3-.26a.2.2,0,0,0,0-.15S14.35,46.75,14.37,46.76Z"/><path class="cls-1" d="M43.07,4.94c0,.35,0,.35-.34.4l-.09,0a2.46,2.46,0,0,0,0-.28c0-.09,0-.14.14-.14Z"/><path class="cls-1" d="M17.64,49.65h.25c.12,0,.17.05.17.17a2.09,2.09,0,0,0,0,.25l-.23,0c-.19,0-.19,0-.2-.21Z"/><path class="cls-1" d="M70.56,54.55c0-.39,0-.39.38-.42a0,0,0,0,1,.06,0,.37.37,0,0,0,0,.27c0,.11,0,.15-.16.15Z"/><path class="cls-1" d="M30.34,40.23h-.12c-.27,0-.27,0-.27-.3,0,0,0-.07,0-.11h0a.57.57,0,0,1,.32,0c.1.06,0,.2.06.29a.49.49,0,0,0,0,.11A0,0,0,0,1,30.34,40.23Z"/><path class="cls-1" d="M58.24,4.11c-.12,0-.27,0-.36,0s0-.23-.06-.34V3.69a.8.8,0,0,0,.27,0,.14.14,0,0,1,.15.16Z"/><path class="cls-1" d="M29.92,33.23h0c.38,0,.38,0,.38.41-.11,0-.24,0-.34,0s0-.2-.05-.3Z"/><path class="cls-1" d="M16.84,4.1a.63.63,0,0,0,0,.27c0,.11-.05.15-.15.15h-.23c0-.39,0-.39.38-.42Z"/><path class="cls-1" d="M12.32,45.12h.38c0,.14,0,.28.05.42h0C12.33,45.53,12.3,45.64,12.32,45.12Z"/><path class="cls-1" d="M43.92,4.1a.51.51,0,0,0,0,.3c0,.09-.05.12-.13.12h-.26c0-.39,0-.39.38-.42Z"/><path class="cls-1" d="M35.7,56.19h.07c.33,0,.33,0,.32.35,0,0,0,0,0,.07h0a.68.68,0,0,1-.32,0c-.1-.06,0-.19-.06-.29a.49.49,0,0,0,0-.11S35.68,56.17,35.7,56.19Z"/><path class="cls-1" d="M32,5h0c-.38,0-.38,0-.38-.42.11,0,.24,0,.34,0s0,.22.06.32A.19.19,0,0,1,32,5Z"/><path class="cls-1" d="M33.59,43.08h.06c.4,0,.4,0,.38.42h-.11c-.22,0-.3,0-.28-.26A.23.23,0,0,0,33.59,43.08Z"/><path class="cls-1" d="M43.49,4.52a.58.58,0,0,0,0,.23c0,.18,0,.18-.21.19h-.18c0-.39,0-.39.4-.42Z"/><path class="cls-1" d="M53.34,57.45h-.05a.45.45,0,0,0,0-.2c0-.21,0-.21.23-.21h.16C53.75,57.44,53.75,57.44,53.34,57.45Z"/><path class="cls-1" d="M61.14,50.45a.61.61,0,0,0,0,.27c0,.11-.05.15-.16.15h-.23C60.69,50.47,60.69,50.47,61.14,50.45Z"/><path class="cls-1" d="M30.34,40.23h.06c.44,0,.36,0,.36.38H30.7C30.27,40.63,30.35,40.57,30.34,40.23Z"/><path class="cls-1" d="M52.58,57.86h.34c0,.37.07.39-.39.38h0V58C52.5,57.89,52.53,57.86,52.58,57.86Z"/><path class="cls-1" d="M71,54.14h-.06c0-.4,0-.4.42-.37v0C71.36,54.17,71.41,54.16,71,54.14Z"/><path class="cls-1" d="M35.7,56.19h-.06c-.43,0-.36,0-.36-.37h.15c.26,0,.26,0,.27.24Z"/><path class="cls-1" d="M39,55.82h.4c0,.39.08.41-.41.38A2.29,2.29,0,0,1,39,55.82Z"/><path class="cls-1" d="M33.23,67.67h-.29a.1.1,0,0,1-.13-.11v-.27h0C33.3,67.28,33.22,67.27,33.23,67.67Z"/><path class="cls-1" d="M54.91,67.29H55c0,.4,0,.4-.41.38v0C54.53,67.27,54.53,67.27,54.91,67.29Z"/><path class="cls-1" d="M28.7,38.59h.06c.42,0,.36,0,.36.38C28.7,39,28.7,39,28.7,38.59Z"/><path class="cls-1" d="M50.09,60.3H50v-.13c0-.24,0-.24.27-.24h.15v0C50.45,60.31,50.53,60.32,50.09,60.3Z"/><path class="cls-1" d="M28.7,63.61h.06c.44,0,.36,0,.36.38h0C28.62,64,28.72,64,28.7,63.61Z"/><path class="cls-1" d="M52.45,69.34h.06v.07c0,.33,0,.32-.33.32h-.09v0C52.08,69.34,52.08,69.34,52.45,69.34Z"/><path class="cls-1" d="M50.81,71h.06c0,.4,0,.4-.42.38v0C50.44,71,50.4,71,50.81,71Z"/><path class="cls-1" d="M13.54,46h0c.41,0,.39-.05.39.39h-.27c-.1,0-.14,0-.14-.14Z"/><path class="cls-1" d="M27.07,61.92h-.39c-.07-.12,0-.26,0-.38h.05C27.12,61.56,27.06,61.53,27.07,61.92Z"/><path class="cls-1" d="M48.45,61.93H48.4a1.2,1.2,0,0,1,0-.19c0-.19,0-.19.21-.2h.2v0C48.81,61.93,48.86,62,48.45,61.93Z"/><path class="cls-1" d="M26.65,73h.06c.4,0,.38,0,.36.38C26.66,73.44,26.66,73.44,26.65,73Z"/><path class="cls-1" d="M72.19,15.59h0c-.42,0-.37,0-.36-.38C72.18,15.19,72.18,15.19,72.19,15.59Z"/><path class="cls-1" d="M37.75,46v-.4a2.29,2.29,0,0,1,.37,0C38.16,46,38.13,46,37.75,46Z"/><path class="cls-1" d="M29.54,75.46h-.06c-.43,0-.36,0-.36-.38h0C29.63,75.07,29.53,75.1,29.54,75.46Z"/><path class="cls-1" d="M46,75.47h-.06c0-.12,0-.26,0-.37h.38v0C46.33,75.45,46.42,75.48,46,75.47Z"/><path class="cls-1" d="M47.56.85v0c0,.43,0,.38-.38.38,0,0,0,0,0-.05C47.19.84,47.09.83,47.56.85Z"/><path class="cls-1" d="M47.18,1.25c0,.39.07.4-.41.39C46.75,1.26,46.75,1.26,47.18,1.25Z"/><path class="cls-1" d="M68.09,11.9H68c-.44,0-.35,0-.36-.38h.22c.18,0,.19,0,.2.2Z"/><path class="cls-1" d="M33.23,42.65h-.06c-.43,0-.36,0-.36-.38h0C33.22,42.27,33.22,42.27,33.23,42.65Z"/><path class="cls-1" d="M41.46,54.15H41.4c0-.13,0-.26.05-.38h.38C41.8,54.17,41.88,54.13,41.46,54.15Z"/><path class="cls-1" d="M26.65,48h.06c.4,0,.37,0,.36.39C26.66,48.42,26.66,48.42,26.65,48Z"/><path class="cls-1" d="M4.53,54.14H4.47c-.36,0-.36,0-.37-.38h.11c.31,0,.31,0,.32.29Z"/><path class="cls-1" d="M32.81,53.76h.06c.43,0,.36,0,.36.39h0C32.82,54.15,32.82,54.15,32.81,53.76Z"/><path class="cls-1" d="M33.64,79.15h-.4a1.16,1.16,0,0,1,0-.37h.23c.16,0,.18,0,.18.19A1.21,1.21,0,0,1,33.64,79.15Z"/><path class="cls-1" d="M69.3,13.16h.06c.43,0,.37,0,.36.37h0C69.31,13.55,69.31,13.55,69.3,13.16Z"/><path class="cls-1" d="M37.76,57.45V57a1.15,1.15,0,0,1,.37,0,1.77,1.77,0,0,1,0,.23c0,.17,0,.18-.19.19Z"/><path class="cls-1" d="M27.06.42H27c-.37,0-.38,0-.34-.38C27.05,0,27.05,0,27.06.42Z"/><path class="cls-1" d="M14.37,46.76h0c-.37,0-.38.07-.36-.39C14.33,46.37,14.33,46.37,14.37,46.76Z"/><path class="cls-1" d="M41.8,42.27h.05c0,.41,0,.41-.41.37C41.41,42.19,41.44,42.27,41.8,42.27Z"/><path class="cls-1" d="M60.72,46.76v0c0-.38,0-.38.38-.35C61.12,46.77,61.12,46.77,60.72,46.76Z"/><path class="cls-1" d="M45.56,38.6h.37c0,.34.09.4-.38.37A.66.66,0,0,1,45.56,38.6Z"/><path class="cls-1" d="M5.31,13.53H4.93v0c0-.36,0-.36.39-.34A.66.66,0,0,1,5.31,13.53Z"/><path class="cls-1" d="M42.23,67.67h-.38c0-.38,0-.38.39-.36A.93.93,0,0,1,42.23,67.67Z"/><path class="cls-1" d="M6.58,55.82c.39,0,.4,0,.37.37C6.55,56.23,6.53,56.22,6.58,55.82Z"/><path class="cls-1" d="M40.19,7.42v0c0,.35.08.38-.38.35C39.78,7.4,39.78,7.4,40.19,7.42Z"/><path class="cls-1" d="M32.39,5.32C32,5.34,32,5.33,32,5,32.43,4.94,32.41,4.89,32.39,5.32Z"/><path class="cls-1" d="M73,52.5c0-.37,0-.37.37-.37C73.4,52.49,73.48,52.51,73,52.5Z"/><path class="cls-1" d="M16.85,3.74h.37v0c0,.37,0,.37-.38.34A1.09,1.09,0,0,1,16.85,3.74Z"/><path class="cls-1" d="M43.49,34.85c0-.43-.05-.39.37-.37C43.87,34.87,43.87,34.87,43.49,34.85Z"/><path class="cls-1" d="M28.28,1.63c-.38,0-.38,0-.37-.37h0C28.31,1.25,28.3,1.2,28.28,1.63Z"/><path class="cls-1" d="M18.06,50.07c.41,0,.39,0,.38.38C18,50.46,18.05,50.47,18.06,50.07Z"/><path class="cls-1" d="M33.65,36.54c.39,0,.39,0,.37.37C33.59,36.93,33.64,37,33.65,36.54Z"/><path class="cls-1" d="M20.49,56.19c-.4,0-.41,0-.37-.38h0C20.52,55.78,20.53,55.79,20.49,56.19Z"/><path class="cls-1" d="M3.27,15.21c0,.39,0,.4-.38.37C2.85,15.18,2.86,15.17,3.27,15.21Z"/><path class="cls-1" d="M31.17,77.14c.38,0,.38,0,.38.38C31.18,77.53,31.18,77.53,31.17,77.14Z"/><path class="cls-1" d="M61.51,50.07c0,.4,0,.41-.38.38C61.09,50.05,61.1,50.05,61.51,50.07Z"/><path class="cls-1" d="M18.47,65.67h.38a.78.78,0,0,1,0,.37C18.4,66.06,18.48,66,18.47,65.67Z"/><path class="cls-1" d="M66.47,57.87h.37c0,.39.06.39-.38.37A.77.77,0,0,1,66.47,57.87Z"/><path class="cls-1" d="M45.13,33.23c0-.4,0-.4.38-.38C45.53,33.29,45.53,33.23,45.13,33.23Z"/><path class="cls-1" d="M29.55,32.85c.38,0,.38,0,.37.37C29.49,33.24,29.53,33.26,29.55,32.85Z"/><path class="cls-1" d="M57.39,54.13H57c0-.38-.06-.4.39-.37A.92.92,0,0,1,57.39,54.13Z"/><path class="cls-1" d="M61.13,46.34c0-.39,0-.39.38-.37C61.51,46.38,61.57,46.36,61.13,46.34Z"/><path class="cls-1" d="M43.06,35.28c0-.13,0-.27,0-.37s.24,0,.35,0h.05a.86.86,0,0,0-.17.24A.27.27,0,0,1,43.06,35.28Z"/><path class="cls-1" d="M54.65,55.82V56a.13.13,0,0,1-.1.14,2.09,2.09,0,0,1,0-.25C54.56,55.87,54.58,55.82,54.65,55.82Z"/><path class="cls-1" d="M73.83,51.71h-.41c.12-.1.27,0,.41-.06Z"/><path class="cls-1" d="M2.47,52.08c-.37,0-.37,0-.37-.37C2.55,51.68,2.46,51.74,2.47,52.08Z"/><path class="cls-1" d="M39.81,69.72c0-.43,0-.37.37-.37a1.22,1.22,0,0,1,0,.38A.63.63,0,0,1,39.81,69.72Z"/><path class="cls-1" d="M39.81,69.72h.36a.81.81,0,0,1-.38,0A.05.05,0,0,1,39.81,69.72Z"/><path class="cls-1" d="M48.39,36.54c.38,0,.38,0,.38.36V47c0,.1-.05.15-.14.15a.59.59,0,0,0-.23,0v-10C48.4,37,48.4,36.77,48.39,36.54Z"/><path class="cls-1" d="M36.9,46h.84c0,.37,0,.37-.36.38h-.32a.14.14,0,0,1-.16-.16A1.76,1.76,0,0,0,36.9,46Z"/><path class="cls-1" d="M26.65,29.91h-.21a.14.14,0,0,1-.16-.16c0-.14,0-.19.18-.21h.18Z"/><path class="cls-1" d="M25.86.42h.37c.09,1.49,0,3,0,4.49s0,2.83,0,4.25c-.09,6.08,0,12.17,0,18.25,0,.49.06,1,.05,1.45a3.91,3.91,0,0,1-.05.48c0,.17,0,.18-.2.19h-.17a.7.7,0,0,1,0-.25V.7A2.72,2.72,0,0,1,25.86.42Z"/></g></g></svg>